<?xml version="1.0" encoding="utf-8"?>
<!-- Generator: Adobe Illustrator 19.1.0, SVG Export Plug-In . SVG Version: 6.00 Build 0)  -->
<svg version="1.1" id="Layer_1" xmlns="http://www.w3.org/2000/svg" xmlns:xlink="http://www.w3.org/1999/xlink" x="0px" y="0px"
	 viewBox="0 0 446.9 123.8" style="enable-background:new 0 0 446.9 123.8;" xml:space="preserve">
<style type="text/css">
	.st0{display:none;}
	.st1{display:inline;}
	.st2{clip-path:url(#SVGID_2_);}
	.st3{fill:#A5D037;}
	.st4{fill:#FEBF03;}
	.st5{fill:#FEFDFB;}
	.st6{fill:#F89F03;}
	.st7{fill:#F9FCFA;}
	.st8{fill:#06BDD0;}
	.st9{display:inline;fill:#757575;}
	.st10{clip-path:url(#SVGID_4_);}
	.st11{fill:#757575;}
</style>
<g class="st0">
	<g class="st1">
		<defs>
			<circle id="SVGID_1_" cx="81" cy="60" r="59.2"/>
		</defs>
		<clipPath id="SVGID_2_">
			<use xlink:href="#SVGID_1_"  style="overflow:visible;"/>
		</clipPath>
		<g id="_x39_y6FA9.tif_1_" class="st2">
			<g>
				<path class="st3" d="M73.6,0C78.8,0,84,0,89.1,0c0.4,0.8,1.1,0.5,1.7,0.7c5.3,1,10.5,2.3,15.5,4.6c16.2,7.4,27.4,19.4,32.7,36.5
					c0.7,2.1,0.8,4.4,2.1,6.2c0,5.7,0,11.3,0,17c-0.9-2.6-1.8-5.2-2.8-7.7c-2.3-5.7-5.2-11.1-9.6-15.5c-0.5-0.7-1-1.6-1.6-2.2
					c-8.1-8.8-17.7-15-29.3-18c-16.9-4.5-32.8-2.2-47.8,6.7c-4.4,2.6-8.1,6.1-12,9.2c-0.3-1.3,0.3-2.5,0.6-3.6
					c2.8-10.2,8-19.1,15.3-26.7c5-3.5,10.9-4.7,16.7-6.1C71.7,0.8,72.9,1.1,73.6,0z"/>
				<path class="st4" d="M128.8,41.9c4.4,4.4,7.2,9.8,9.6,15.5c1,2.5,1.9,5.1,2.8,7.7c0,2.2,0,4.3,0,6.5c-0.8,0.2-0.7,0.9-0.8,1.4
					c-1.7,7.1-4.4,13.8-8.5,19.9c-7.9,11.8-18.5,20-32,24.3c-3.5,1.1-7.1,2-10.7,3c-5.5,0-11,0-16.5,0c-0.3-0.8-1.1-0.6-1.7-0.7
					c-6-1.2-11.8-2.9-17.2-5.8c-7-3.7-13.3-8.1-18.2-14.4c0.9,0,1.5,0.5,2.3,0.9c12.3,6.7,25.4,9.5,39.4,7.3
					c1.4-0.2,2.8-0.4,4.2-0.7c11.3-2.6,21.2-7.8,29.4-16c6.5-6.4,11.3-13.9,14.5-22.5C128.5,59.7,129.2,50.9,128.8,41.9z"/>
				<path class="st5" d="M73.6,0c-0.7,1.1-1.9,0.8-2.9,1C64.9,2.5,59.1,3.7,54,7.2c-2.6,0.4-4.6,2.2-6.7,3.6
					c-13.2,9.1-21.6,21.4-25.2,37c-0.2,0.7,0,1.6-1,1.8c0-15.9,0-31.8,0-47.7C21,0.3,21.4,0,23,0C39.9,0.1,56.7,0,73.6,0z"/>
				<path class="st5" d="M89.1,120.1c3.6-1,7.2-1.8,10.7-3c13.5-4.3,24.1-12.5,32-24.3c4.1-6.1,6.8-12.8,8.5-19.9
					c0.1-0.5,0.1-1.2,0.8-1.4c0,15.6,0,31.2,0,46.8c0,1.5-0.3,1.8-1.8,1.8C122.7,120.1,105.9,120.1,89.1,120.1z"/>
				<path class="st5" d="M21.1,71.6c1.7,2.4,1.8,5.4,2.8,8c2.6,7,6.1,13.4,10.9,19c0.2,0.3,0.4,0.6,0.8,0.5l-0.2,0
					c4.9,6.3,11.2,10.8,18.2,14.4c5.4,2.8,11.3,4.5,17.2,5.8c0.6,0.1,1.4-0.1,1.7,0.7c-16.6,0-33.1,0-49.7,0c-1.6,0-1.9-0.3-1.9-1.9
					C21.1,102.7,21.1,87.1,21.1,71.6z"/>
				<path class="st5" d="M141.2,48.1c-1.3-1.9-1.4-4.2-2.1-6.2c-5.3-17.2-16.5-29.1-32.7-36.5c-5-2.3-10.2-3.5-15.5-4.6
					c-0.6-0.1-1.4,0.1-1.7-0.7c16.8,0,33.5,0,50.3,0c1.5,0,1.8,0.3,1.8,1.8C141.2,17.2,141.2,32.6,141.2,48.1z"/>
				<path class="st6" d="M48.1,85.7c-8-11-11.8-23.5-11.5-37.1c0-1.3,0-2.7,0.1-4c0.4-2.2,0.7-4.3,1.1-6.5c0.1-0.2,0.3-0.4,0.4-0.6
					l0,0c-0.3-1.3,0.3-2.5,0.6-3.6c2.8-10.2,8-19.1,15.3-26.7c-2.6,0.4-4.6,2.2-6.7,3.6c-13.2,9.1-21.6,21.4-25.2,37
					c-0.2,0.7,0,1.6-1,1.8c0,2.5,0,5,0,7.5c0,4.8,0,9.7,0,14.5c1.7,2.4,1.8,5.4,2.8,8c2.6,7,6.1,13.4,10.9,19
					c0.3,0.2,0.5,0.3,0.8,0.5l-0.2,0c0.9,0,1.5,0.5,2.3,0.9c12.3,6.7,25.4,9.5,39.4,7.3C65.2,103.1,55.5,95.9,48.1,85.7z"/>
				<path class="st7" d="M36.6,44.6c0.4-2.2,0.7-4.3,1.1-6.5c0.1-0.2,0.3-0.4,0.4-0.6l0,0c4-3.1,7.6-6.6,12-9.2
					c15-8.9,31-11.2,47.8-6.7c11.6,3.1,21.2,9.3,29.3,18c0.6,0.7,1,1.5,1.6,2.2c0.4,9-0.3,17.8-3.5,26.3c-3.2,8.6-8,16.1-14.5,22.5
					c-8.2,8.2-18.2,13.3-29.4,16c-1.4,0.3-2.8,0.5-4.2,0.7c-11.9-4.2-21.6-11.5-29.1-21.7c-8-11-11.8-23.5-11.5-37.1
					C36.6,47.2,36.6,45.9,36.6,44.6z M102.5,37.7c-2.4-2.3-4.9-3.9-7.5-5c-14.6-6.4-30.3-2.7-40.2,9.9C49.7,49,47.4,56.4,48,64.7
					c0.1,1.8,0.7,2.1,2.3,1.3c2.6-1.3,5.4-2.3,8-3.6c1.3-0.7,3.6-0.7,3.4-2.7c-0.2-2-2.5-1.6-3.9-1.9c-3.1-0.8-4-2.4-2.5-5.3
					c0.2-0.4,0.5-0.9,0.7-1.3c0.5-0.9,0.9-2,2.2-1.5c1.2,0.4,2,1.2,1.5,2.6c-0.4,1.2,0,2,1.3,2c2.2,0,4.5,0,6.7-0.1
					c0.9,0,1.6-0.4,1.7-1.5c0-1-0.6-1.5-1.5-1.8c-1.3-0.4-2.7-0.1-4-0.2c-1.2,0-2.7,0.1-2.9-1.6c-0.2-1.6,1-2.4,2.4-2.7
					c3.8-0.9,7.1,0.2,9.9,2.9c1.6,1.5,1.8,3.6,1,5.6c-0.8,1.8-2.4,2.7-4.4,2.8c-0.6,0-1.2,0-1.7,0c-0.9,0.1-1.7,0.6-1.7,1.5
					c-0.1,1,0.9,1,1.6,1.1c2.3,0.2,4.4,0.9,6.4,2c3.5,1.8,6.9,1.7,10.2-0.3c4.1-2.5,8.1-5.3,12.5-7.2c0.4-0.2,1-0.6,1-1
					c0.1-0.7-0.7-0.8-1.2-1.1c-2.2-1-4.4-1.9-6.4-3.4c-1-0.7-1.8-1.5-0.7-2.6c1.2-1.3,2.1-2.8,2.8-4.4c0.4-0.8,1.1-1.7,2.1-1.3
					c1,0.4,1.1,1.3,1,2.3c-0.5,3.7,0.2,4.6,3.8,5.2c1.9,0.3,4.3,0.9,5.2-1.5c0.9-2.4-1.1-3.5-2.9-4.6c-0.3-0.2-0.6-0.3-0.9-0.5
					c-1-0.7-2.3-1.4-2.1-2.8C99.3,37.5,101,38.1,102.5,37.7z M111.1,74.3c1.5-3.3,2-6.1,2.4-9c0.2-1.3-0.5-1.8-1.5-2.2
					c-2.8-1.2-5.6-2.5-8.5-3.7c-2.1-0.9-4.2-0.9-6.2,0.4c-3.6,2.2-7.3,4.1-10.7,6.4c-3.7,2.6-7.3,3.1-11.5,1.3
					c-2.6-1.1-5.4-1.7-8.1-2.5c-0.8-0.2-1.9-0.5-2.5,0.6c-0.6,1.1,0.3,1.7,1,2.3c3.4,3.3,6.7,6.7,10.1,10c1.4,1.3,1.8,2.5,0.3,4
					c-1.4,1.5-2.7,1-3.9-0.1c-2.2-2.1-4.4-4.3-6.6-6.4c-2-1.9-3-1.8-4.7,0.3c-1.4,1.7-2.7,3.6-4.3,5.2c-1.2,1.2-1,1.9,0,3.1
					c13.8,15.1,38.7,13.9,50.8-2.5c0.8-1.1,1-2,0.1-3.1c-1.2-1.7-2.3-3.5-3.6-5.1c-0.9-1.2-1.6-3.4-3.1-3.2
					c-1.7,0.2-2.1,2.3-2.8,3.8c-2.1,4.3-4,8.6-8,11.6c-1.6,1.2-3,1.4-4.3-0.3c-1.2-1.6-0.1-2.7,1-3.5c2.2-1.6,3.6-3.9,4.7-6.4
					c1.6-3.7,3.4-7.4,5.1-11.1c0.8-1.8,2-3.3,4.2-3.4c2.1-0.1,2.9,1.7,3.8,3.2C106.5,67.2,108.7,70.5,111.1,74.3z M110.1,47.5
					c-1.7,2.4-3.3,4.6-6.2,5c-0.6,0.1-1.1,0.6-1,1.2c0.1,0.7,0.6,0.9,1.2,1.1c2.7,1,5.3,1.9,8,2.8c1,0.3,1.3,0,1.1-0.9
					C112.6,53.7,111.9,50.6,110.1,47.5z M52.3,77.5c0.2-0.1,0.4-0.3,0.5-0.5c2.2-2.8,4.4-5.7,6.5-8.5c0.3-0.3,0.4-0.8,0.2-1.1
					c-0.4-0.5-0.9-0.4-1.3-0.2c-2.6,1.2-5.1,2.4-7.7,3.6c-0.8,0.4-1.2,0.9-0.8,1.8c0.6,1.4,1.1,2.8,1.7,4.2
					C51.6,77.1,51.8,77.4,52.3,77.5z"/>
				<path class="st4" d="M35.6,99.2c-0.4,0.1-0.6-0.2-0.8-0.5C35.1,98.8,35.3,99,35.6,99.2z"/>
				<path class="st3" d="M38.1,37.6c-0.1,0.2-0.3,0.4-0.4,0.6C37.9,37.9,38,37.7,38.1,37.6z"/>
				<path class="st8" d="M103.5,36.7c-1.6,0.4-3.2-0.1-3.5,1.6c-0.2,1.4,1,2.2,2.1,2.8c0.3,0.2,0.6,0.3,0.9,0.5
					c1.8,1,3.8,2.2,2.9,4.6c-0.9,2.5-3.3,1.8-5.2,1.5c-3.6-0.5-4.2-1.5-3.8-5.2c0.1-1,0-1.9-1-2.3c-1.1-0.4-1.7,0.5-2.1,1.3
					C93,43,92.2,44.5,91,45.8c-1.1,1.1-0.2,2,0.7,2.6c2,1.4,4.2,2.3,6.4,3.4c0.5,0.2,1.3,0.3,1.2,1.1c-0.1,0.4-0.6,0.8-1,1
					c-4.4,2-8.4,4.8-12.5,7.2c-3.3,2-6.7,2.1-10.2,0.3c-2-1-4.1-1.8-6.4-2c-0.7-0.1-1.7-0.1-1.6-1.1c0.1-0.9,0.8-1.4,1.7-1.5
					c0.6-0.1,1.2,0,1.7,0c2-0.1,3.6-1,4.4-2.8c0.8-2,0.5-4.1-1-5.6c-2.7-2.7-6-3.8-9.9-2.9c-1.4,0.3-2.6,1.1-2.4,2.7
					c0.2,1.8,1.6,1.6,2.9,1.6c1.3,0,2.7-0.2,4,0.2c0.9,0.3,1.5,0.8,1.5,1.8c0,1.1-0.7,1.4-1.7,1.5c-2.2,0.1-4.5,0.1-6.7,0.1
					c-1.4,0-1.7-0.8-1.3-2c0.5-1.5-0.3-2.2-1.5-2.6c-1.3-0.5-1.7,0.6-2.2,1.5c-0.2,0.4-0.5,0.9-0.7,1.3c-1.4,2.9-0.6,4.5,2.5,5.3
					c1.4,0.4,3.7-0.1,3.9,1.9c0.3,2.1-2.1,2.1-3.4,2.7c-2.6,1.3-5.4,2.3-8,3.6c-1.6,0.8-2.2,0.4-2.3-1.3c-0.6-8.3,1.7-15.7,6.8-22.2
					C65.7,29,81.4,25.2,96,31.6C98.7,32.8,101.1,34.4,103.5,36.7z"/>
				<path class="st8" d="M112.1,73.3c-2.4-3.8-4.5-7.1-6.7-10.5c-0.9-1.5-1.7-3.2-3.8-3.2c-2.2,0.1-3.4,1.6-4.2,3.4
					c-1.7,3.7-3.5,7.4-5.1,11.1c-1.1,2.5-2.4,4.7-4.7,6.4c-1.2,0.9-2.3,1.9-1,3.5c1.3,1.7,2.7,1.5,4.3,0.3c4-3,5.9-7.4,8-11.6
					c0.7-1.5,1.1-3.7,2.8-3.8c1.6-0.1,2.2,2,3.1,3.2c1.3,1.7,2.3,3.5,3.6,5.1c0.8,1.1,0.7,2-0.1,3.1c-12.1,16.4-37,17.7-50.8,2.5
					c-1-1.1-1.2-1.9,0-3.1c1.6-1.6,2.9-3.4,4.3-5.2c1.7-2.1,2.7-2.2,4.7-0.3c2.2,2.1,4.4,4.3,6.6,6.4c1.2,1.2,2.5,1.6,3.9,0.1
					c1.4-1.5,1-2.7-0.3-4c-3.4-3.3-6.7-6.7-10.1-10c-0.7-0.6-1.5-1.3-1-2.3c0.5-1,1.6-0.8,2.5-0.6c2.7,0.7,5.5,1.4,8.1,2.5
					c4.2,1.8,7.8,1.2,11.5-1.3c3.4-2.4,7.1-4.3,10.7-6.4c2-1.2,4.1-1.3,6.2-0.4c2.8,1.2,5.6,2.5,8.5,3.7c1,0.4,1.7,0.9,1.5,2.2
					C114.1,67.2,113.6,70,112.1,73.3z"/>
				<path class="st8" d="M111.1,46.5c1.7,3.1,2.5,6.2,3.1,9.4c0.2,0.9-0.2,1.2-1.1,0.9c-2.7-1-5.3-1.9-8-2.8
					c-0.6-0.2-1.1-0.5-1.2-1.1c-0.1-0.7,0.4-1.2,1-1.2C107.9,51.1,109.4,48.9,111.1,46.5z"/>
				<path class="st8" d="M53.3,76.5c-0.5-0.1-0.8-0.4-0.9-0.8c-0.6-1.4-1.1-2.8-1.7-4.2c-0.4-0.9,0.1-1.4,0.8-1.8
					c2.6-1.2,5.1-2.4,7.7-3.6c0.4-0.2,1-0.4,1.3,0.2c0.3,0.4,0.1,0.8-0.2,1.1c-2.2,2.8-4.4,5.7-6.5,8.5
					C53.7,76.2,53.5,76.3,53.3,76.5z"/>
			</g>
		</g>
	</g>
</g>
<g class="st0">
	<path class="st9" d="M194.2,47.5c-1.3-1.8-3.1-3.2-5.3-4c-2.2-0.8-4.3-1.3-6.3-1.3c-2.6,0-5,0.5-7.2,1.4c-2.2,1-4,2.3-5.6,4
		c-1.6,1.7-2.8,3.6-3.6,5.9c-0.8,2.3-1.3,4.7-1.3,7.3c0,2.8,0.4,5.3,1.2,7.6c0.8,2.3,2,4.3,3.5,5.9c1.5,1.7,3.3,2.9,5.4,3.9
		c2.1,0.9,4.5,1.4,7.1,1.4c2.7,0,5.2-0.5,7.3-1.6c2.1-1.1,3.8-2.5,5.1-4.3l7.3,5.1c-2.3,2.8-5,5-8.3,6.6c-3.3,1.6-7.1,2.3-11.4,2.3
		c-4,0-7.6-0.7-11-2c-3.3-1.3-6.2-3.2-8.6-5.5c-2.4-2.4-4.3-5.2-5.6-8.5c-1.3-3.3-2-6.9-2-10.9c0-4.1,0.7-7.8,2.1-11.1
		c1.4-3.3,3.4-6.1,5.8-8.4c2.5-2.3,5.4-4.1,8.7-5.3c3.4-1.2,7-1.9,10.9-1.9c1.6,0,3.3,0.2,5.1,0.5c1.8,0.3,3.5,0.8,5.1,1.4
		c1.6,0.6,3.2,1.5,4.6,2.4c1.4,1,2.7,2.1,3.7,3.5L194.2,47.5z"/>
	<path class="st9" d="M228.7,82.1h-0.2c-0.9,1.5-2.3,2.8-4.2,3.8c-1.9,1-4.1,1.5-6.6,1.5c-1.4,0-2.8-0.2-4.4-0.5
		c-1.5-0.4-2.9-1-4.2-1.8c-1.3-0.8-2.3-1.9-3.2-3.3c-0.8-1.4-1.3-3.1-1.3-5.1c0-2.6,0.7-4.7,2.2-6.2c1.5-1.5,3.3-2.7,5.7-3.5
		c2.3-0.8,4.9-1.4,7.7-1.6c2.8-0.3,5.6-0.4,8.2-0.4v-0.9c0-2.2-0.8-3.8-2.3-4.8c-1.6-1-3.4-1.5-5.6-1.5c-1.8,0-3.6,0.4-5.3,1.2
		c-1.7,0.8-3.1,1.7-4.2,2.8l-4.5-5.3c2-1.8,4.2-3.2,6.8-4.1c2.6-0.9,5.2-1.4,7.8-1.4c3.1,0,5.6,0.4,7.6,1.3c2,0.9,3.6,2,4.7,3.4
		c1.2,1.4,2,3,2.4,4.7c0.5,1.7,0.7,3.5,0.7,5.2v21h-8.1V82.1z M228.6,70.8h-1.9c-1.4,0-2.9,0.1-4.4,0.2c-1.5,0.1-3,0.4-4.2,0.8
		c-1.3,0.4-2.4,1-3.2,1.7c-0.9,0.7-1.3,1.8-1.3,3.1c0,0.8,0.2,1.5,0.5,2.1c0.4,0.6,0.8,1,1.4,1.3c0.6,0.3,1.2,0.6,1.9,0.7
		c0.7,0.1,1.4,0.2,2.2,0.2c3,0,5.2-0.8,6.8-2.4c1.5-1.6,2.3-3.7,2.3-6.5V70.8z"/>
	<path class="st9" d="M242.7,32.1h8.6v54.4h-8.6V32.1z"/>
	<path class="st9" d="M256.2,40.2c0-1.4,0.5-2.6,1.5-3.6c1-1,2.3-1.5,3.9-1.5s2.9,0.5,4,1.5c1.1,1,1.6,2.2,1.6,3.7
		c0,1.5-0.5,2.7-1.6,3.7c-1.1,1-2.4,1.5-4,1.5s-2.9-0.5-3.9-1.5C256.7,42.8,256.2,41.6,256.2,40.2z M257.4,52h8.6v34.6h-8.6V52z"/>
	<path class="st9" d="M312.1,47.5c-1.3-1.8-3.1-3.2-5.3-4c-2.2-0.8-4.3-1.3-6.3-1.3c-2.6,0-5,0.5-7.2,1.4c-2.2,1-4,2.3-5.6,4
		c-1.6,1.7-2.8,3.6-3.6,5.9c-0.8,2.3-1.3,4.7-1.3,7.3c0,2.8,0.4,5.3,1.2,7.6c0.8,2.3,2,4.3,3.5,5.9c1.5,1.7,3.3,2.9,5.4,3.9
		c2.1,0.9,4.5,1.4,7.1,1.4c2.7,0,5.2-0.5,7.3-1.6s3.8-2.5,5.1-4.3l7.3,5.1c-2.3,2.8-5,5-8.3,6.6c-3.3,1.6-7.1,2.3-11.4,2.3
		c-4,0-7.6-0.7-11-2c-3.3-1.3-6.2-3.2-8.6-5.5c-2.4-2.4-4.3-5.2-5.6-8.5c-1.3-3.3-2-6.9-2-10.9c0-4.1,0.7-7.8,2.1-11.1
		c1.4-3.3,3.4-6.1,5.8-8.4c2.5-2.3,5.4-4.1,8.7-5.3c3.4-1.2,7-1.9,10.9-1.9c1.6,0,3.3,0.2,5.1,0.5c1.8,0.3,3.5,0.8,5.1,1.4
		c1.6,0.6,3.2,1.5,4.6,2.4c1.4,1,2.7,2.1,3.7,3.5L312.1,47.5z"/>
	<path class="st9" d="M346.6,82.1h-0.2c-0.9,1.5-2.3,2.8-4.2,3.8c-1.9,1-4.1,1.5-6.6,1.5c-1.4,0-2.8-0.2-4.4-0.5
		c-1.5-0.4-2.9-1-4.2-1.8c-1.3-0.8-2.3-1.9-3.2-3.3c-0.8-1.4-1.3-3.1-1.3-5.1c0-2.6,0.7-4.7,2.2-6.2c1.5-1.5,3.3-2.7,5.7-3.5
		c2.3-0.8,4.9-1.4,7.7-1.6c2.8-0.3,5.6-0.4,8.2-0.4v-0.9c0-2.2-0.8-3.8-2.3-4.8c-1.6-1-3.4-1.5-5.6-1.5c-1.8,0-3.6,0.4-5.3,1.2
		c-1.7,0.8-3.1,1.7-4.2,2.8l-4.5-5.3c2-1.8,4.2-3.2,6.8-4.1c2.6-0.9,5.2-1.4,7.8-1.4c3.1,0,5.6,0.4,7.6,1.3c2,0.9,3.6,2,4.7,3.4
		c1.2,1.4,2,3,2.4,4.7s0.7,3.5,0.7,5.2v21h-8.1V82.1z M346.5,70.8h-1.9c-1.4,0-2.9,0.1-4.4,0.2c-1.5,0.1-3,0.4-4.2,0.8
		c-1.3,0.4-2.4,1-3.2,1.7c-0.9,0.7-1.3,1.8-1.3,3.1c0,0.8,0.2,1.5,0.5,2.1c0.4,0.6,0.8,1,1.4,1.3c0.6,0.3,1.2,0.6,1.9,0.7
		c0.7,0.1,1.4,0.2,2.2,0.2c3,0,5.2-0.8,6.8-2.4c1.5-1.6,2.3-3.7,2.3-6.5V70.8z"/>
	<path class="st9" d="M360.5,52h8.3v5.8h0.1c1-2,2.3-3.6,4-4.9c1.7-1.2,3.7-1.9,6-1.9c0.3,0,0.7,0,1.1,0c0.4,0,0.7,0.1,1,0.2v7.9
		c-0.6-0.1-1.1-0.2-1.5-0.3c-0.4,0-0.8-0.1-1.2-0.1c-2,0-3.6,0.4-4.8,1.1c-1.2,0.7-2.1,1.6-2.8,2.6c-0.7,1-1.1,2-1.4,3.1
		c-0.2,1.1-0.4,1.9-0.4,2.5v18.5h-8.6V52z"/>
	<path class="st9" d="M416.9,69.7c0,0.4,0,0.8,0,1.2c0,0.4,0,0.8-0.1,1.2h-26.3c0.1,1.2,0.4,2.4,1,3.4c0.6,1,1.3,1.9,2.2,2.7
		c0.9,0.7,1.9,1.3,3.1,1.8c1.2,0.4,2.4,0.6,3.6,0.6c2.2,0,4-0.4,5.5-1.2c1.5-0.8,2.7-1.9,3.7-3.3l5.8,4.6c-3.4,4.6-8.4,6.9-14.8,6.9
		c-2.7,0-5.2-0.4-7.4-1.3c-2.3-0.8-4.2-2-5.9-3.6c-1.7-1.5-3-3.4-3.9-5.7c-0.9-2.2-1.4-4.8-1.4-7.6c0-2.8,0.5-5.3,1.4-7.6
		c0.9-2.3,2.2-4.2,3.9-5.8c1.6-1.6,3.6-2.9,5.8-3.7c2.2-0.9,4.6-1.3,7.2-1.3c2.4,0,4.6,0.4,6.7,1.2c2,0.8,3.8,2,5.3,3.5
		c1.5,1.6,2.7,3.5,3.5,5.8C416.5,63.8,416.9,66.6,416.9,69.7z M408.3,65.8c0-1.1-0.2-2.2-0.5-3.2c-0.3-1-0.8-1.9-1.5-2.7
		c-0.7-0.8-1.5-1.4-2.6-1.8c-1-0.5-2.2-0.7-3.6-0.7c-2.6,0-4.8,0.8-6.6,2.3c-1.8,1.6-2.8,3.6-3,6H408.3z"/>
	<path class="st9" d="M441.3,61.2c-0.8-1-1.8-1.9-3.2-2.6c-1.3-0.7-2.8-1.1-4.4-1.1c-1.4,0-2.7,0.3-3.8,0.9
		c-1.2,0.6-1.7,1.5-1.7,2.9c0,1.3,0.6,2.3,1.9,2.8c1.3,0.6,3.1,1.1,5.6,1.7c1.3,0.3,2.6,0.7,3.9,1.2c1.3,0.5,2.5,1.1,3.6,1.9
		s2,1.8,2.6,3c0.7,1.2,1,2.6,1,4.3c0,2.1-0.4,3.9-1.2,5.4c-0.8,1.5-1.8,2.7-3.2,3.6c-1.3,0.9-2.9,1.6-4.6,2
		c-1.8,0.4-3.6,0.6-5.4,0.6c-2.7,0-5.3-0.5-7.8-1.5c-2.5-1-4.7-2.4-6.3-4.2l5.7-5.3c1,1.2,2.2,2.3,3.7,3.1c1.5,0.8,3.2,1.2,5.1,1.2
		c0.6,0,1.3-0.1,1.9-0.2c0.6-0.1,1.2-0.4,1.8-0.7c0.6-0.3,1-0.7,1.3-1.3c0.3-0.5,0.5-1.2,0.5-1.9c0-1.4-0.7-2.5-2-3.1
		c-1.3-0.6-3.3-1.2-5.9-1.9c-1.3-0.3-2.6-0.7-3.8-1.1c-1.2-0.5-2.3-1.1-3.3-1.8c-1-0.7-1.7-1.7-2.3-2.8c-0.6-1.1-0.9-2.5-0.9-4.1
		c0-1.9,0.4-3.6,1.2-5c0.8-1.4,1.8-2.5,3.1-3.4c1.3-0.9,2.8-1.5,4.4-2c1.6-0.4,3.3-0.6,5-0.6c2.5,0,4.9,0.4,7.3,1.3
		c2.4,0.9,4.3,2.2,5.7,4L441.3,61.2z"/>
</g>
<g>
	<g>
		<defs>
			<circle id="SVGID_3_" cx="68.2" cy="62.6" r="59.2"/>
		</defs>
		<clipPath id="SVGID_4_">
			<use xlink:href="#SVGID_3_"  style="overflow:visible;"/>
		</clipPath>
		<g id="_x39_y6FA9.tif_2_" class="st10">
			<g>
				<path class="st5" d="M60.8,2.7c-0.7,1.1-1.9,0.8-2.9,1c-5.8,1.4-11.7,2.6-16.7,6.1c-2.6,0.4-4.6,2.2-6.7,3.6
					c-13.2,9.1-21.6,21.4-25.2,37c-0.2,0.7,0,1.6-1,1.8c0-15.9,0-31.8,0-47.7c0-1.6,0.4-1.9,1.9-1.9C27.1,2.7,43.9,2.7,60.8,2.7z"/>
				<path class="st5" d="M76.3,122.8c3.6-1,7.2-1.8,10.7-3c13.5-4.3,24.1-12.5,32-24.3c4.1-6.1,6.8-12.8,8.5-19.9
					c0.1-0.5,0.1-1.2,0.8-1.4c0,15.6,0,31.2,0,46.8c0,1.5-0.3,1.8-1.8,1.8C109.9,122.8,93.1,122.8,76.3,122.8z"/>
				<path class="st5" d="M8.3,74.3c1.7,2.4,1.8,5.4,2.8,8c2.6,7,6.1,13.4,10.9,19c0.2,0.3,0.4,0.6,0.8,0.5l-0.2,0
					c4.9,6.3,11.2,10.8,18.2,14.4c5.4,2.8,11.3,4.5,17.2,5.8c0.6,0.1,1.4-0.1,1.7,0.7c-16.6,0-33.1,0-49.7,0c-1.6,0-1.9-0.3-1.9-1.9
					C8.3,105.4,8.3,89.8,8.3,74.3z"/>
				<path class="st5" d="M128.4,50.7c-1.3-1.9-1.4-4.2-2.1-6.2C120.9,27.3,109.8,15.4,93.6,8c-5-2.3-10.2-3.5-15.5-4.6
					c-0.6-0.1-1.4,0.1-1.7-0.7c16.8,0,33.5,0,50.3,0c1.5,0,1.8,0.3,1.8,1.8C128.3,19.9,128.4,35.3,128.4,50.7z"/>
				<path class="st6" d="M35.3,88.3c-8-11-11.8-23.5-11.5-37.1c0-1.3,0-2.7,0.1-4c0.4-2.2,0.7-4.3,1.1-6.5c0.1-0.2,0.3-0.4,0.4-0.6
					l0,0c-0.3-1.3,0.3-2.5,0.6-3.6c2.8-10.2,8-19.1,15.3-26.7c-2.6,0.4-4.6,2.2-6.7,3.6c-13.2,9.1-21.6,21.4-25.2,37
					c-0.2,0.7,0,1.6-1,1.8c0,2.5,0,5,0,7.5c0,4.8,0,9.7,0,14.5c1.7,2.4,1.8,5.4,2.8,8c2.6,7,6.1,13.4,10.9,19
					c0.3,0.2,0.5,0.3,0.8,0.5l-0.2,0c0.9,0,2.1,1.1,2.8,1.5c12.3,6.7,24.9,9.2,38.9,7C52.5,106.1,42.7,98.6,35.3,88.3z"/>
				<path class="st7" d="M23.5,46.7c0.4-2.2,0.7-4.3,1.1-6.5c0.1-0.2,0.3-0.4,0.4-0.6l0,0c4-3.1,7.6-6.6,12-9.2
					c15-8.9,31-11.2,47.8-6.7c11.6,3.1,21.2,9.3,29.3,18c0.6,0.7,1,1.5,1.6,2.2c0.4,9-0.3,17.8-3.5,26.3c-3.2,8.6-8,16.1-14.5,22.5
					c-8.2,8.2-18.2,13.3-29.4,16c-1.4,0.3-2.8,0.5-4.2,0.7c-11.9-4.2-21.6-11.5-29.1-21.7c-8-11-11.8-23.5-11.5-37.1
					C23.5,49.4,23.5,48.1,23.5,46.7z M89.4,39.8c-2.4-2.3-4.9-3.9-7.5-5c-14.6-6.4-30.3-2.7-40.2,9.9c-5.1,6.5-7.4,13.9-6.8,22.2
					c0.1,1.8,0.7,2.1,2.3,1.3c2.6-1.3,5.4-2.3,8-3.6c1.3-0.7,3.6-0.7,3.4-2.7c-0.2-2-2.5-1.6-3.9-1.9c-3.1-0.8-4-2.4-2.5-5.3
					c0.2-0.4,0.5-0.9,0.7-1.3c0.5-0.9,0.9-2,2.2-1.5c1.2,0.4,2,1.2,1.5,2.6c-0.4,1.2,0,2,1.3,2c2.2,0,4.5,0,6.7-0.1
					c0.9,0,1.6-0.4,1.7-1.5c0-1-0.6-1.5-1.5-1.8c-1.3-0.4-2.7-0.1-4-0.2c-1.2,0-2.7,0.1-2.9-1.6c-0.2-1.6,1-2.4,2.4-2.7
					c3.8-0.9,7.1,0.2,9.9,2.9c1.6,1.5,1.8,3.6,1,5.6c-0.8,1.8-2.4,2.7-4.4,2.8c-0.6,0-1.2,0-1.7,0c-0.9,0.1-1.7,0.6-1.7,1.5
					c-0.1,1,0.9,1,1.6,1.1c2.3,0.2,4.4,0.9,6.4,2c3.5,1.8,6.9,1.7,10.2-0.3c4.1-2.5,8.1-5.3,12.5-7.2c0.4-0.2,1-0.6,1-1
					c0.1-0.7-0.7-0.8-1.2-1.1c-2.2-1-4.4-1.9-6.4-3.4c-1-0.7-1.8-1.5-0.7-2.6c1.2-1.3,2.1-2.8,2.8-4.4c0.4-0.8,1.1-1.7,2.1-1.3
					c1,0.4,1.1,1.3,1,2.3c-0.5,3.7,0.2,4.6,3.8,5.2c1.9,0.3,4.3,0.9,5.2-1.5c0.9-2.4-1.1-3.5-2.9-4.6c-0.3-0.2-0.6-0.3-0.9-0.5
					c-1-0.7-2.3-1.4-2.1-2.8C86.2,39.7,87.8,40.3,89.4,39.8z M97.9,76.5c1.5-3.3,2-6.1,2.4-9c0.2-1.3-0.5-1.8-1.5-2.2
					c-2.8-1.2-5.6-2.5-8.5-3.7c-2.1-0.9-4.2-0.9-6.2,0.4c-3.6,2.2-7.3,4.1-10.7,6.4c-3.7,2.6-7.3,3.1-11.5,1.3
					c-2.6-1.1-5.4-1.7-8.1-2.5c-0.8-0.2-1.9-0.5-2.5,0.6c-0.6,1.1,0.3,1.7,1,2.3c3.4,3.3,6.7,6.7,10.1,10c1.4,1.3,1.8,2.5,0.3,4
					c-1.4,1.5-2.7,1-3.9-0.1c-2.2-2.1-4.4-4.3-6.6-6.4c-2-1.9-3-1.8-4.7,0.3c-1.4,1.7-2.7,3.6-4.3,5.2c-1.2,1.2-1,1.9,0,3.1
					C57.2,101.3,82,100,94.1,83.6c0.8-1.1,1-2,0.1-3.1c-1.2-1.7-2.3-3.5-3.6-5.1c-0.9-1.2-1.6-3.4-3.1-3.2c-1.7,0.2-2.1,2.3-2.8,3.8
					c-2.1,4.3-4,8.6-8,11.6c-1.6,1.2-3,1.4-4.3-0.3c-1.2-1.6-0.1-2.7,1-3.5c2.2-1.6,3.6-3.9,4.7-6.4c1.6-3.7,3.4-7.4,5.1-11.1
					c0.8-1.8,2-3.3,4.2-3.4c2.1-0.1,2.9,1.7,3.8,3.2C93.4,69.3,95.5,72.7,97.9,76.5z M97,49.7c-1.7,2.4-3.3,4.6-6.2,5
					c-0.6,0.1-1.1,0.6-1,1.2c0.1,0.7,0.6,0.9,1.2,1.1c2.7,1,5.3,1.9,8,2.8c1,0.3,1.3,0,1.1-0.9C99.5,55.9,98.7,52.7,97,49.7z
					 M39.2,79.6c0.2-0.1,0.4-0.3,0.5-0.5c2.2-2.8,4.4-5.7,6.5-8.5c0.3-0.3,0.4-0.8,0.2-1.1c-0.4-0.5-0.9-0.4-1.3-0.2
					c-2.6,1.2-5.1,2.4-7.7,3.6c-0.8,0.4-1.2,0.9-0.8,1.8c0.6,1.4,1.1,2.8,1.7,4.2C38.5,79.2,38.7,79.6,39.2,79.6z"/>
				<path class="st4" d="M22.8,101.8c-0.4,0.1-0.6-0.2-0.8-0.5C22.3,101.5,22.5,101.7,22.8,101.8z"/>
				<path class="st3" d="M25.3,40.2c-0.1,0.2-0.3,0.4-0.4,0.6C25.1,40.6,25.2,40.4,25.3,40.2z"/>
				<path class="st8" d="M90.7,39.3c-1.6,0.4-3.2-0.1-3.5,1.6c-0.2,1.4,1,2.2,2.1,2.8c0.3,0.2,0.6,0.3,0.9,0.5
					c1.8,1,3.8,2.2,2.9,4.6c-0.9,2.5-3.3,1.8-5.2,1.5c-3.6-0.5-4.2-1.5-3.8-5.2c0.1-1,0-1.9-1-2.3c-1.1-0.4-1.7,0.5-2.1,1.3
					c-0.8,1.6-1.6,3.1-2.8,4.4c-1.1,1.1-0.2,2,0.7,2.6c2,1.4,4.2,2.3,6.4,3.4c0.5,0.2,1.3,0.3,1.2,1.1c-0.1,0.4-0.6,0.8-1,1
					c-4.4,2-8.4,4.8-12.5,7.2c-3.3,2-6.7,2.1-10.2,0.3c-2-1-4.1-1.8-6.4-2c-0.7-0.1-1.7-0.1-1.6-1.1c0.1-0.9,0.8-1.4,1.7-1.5
					c0.6-0.1,1.2,0,1.7,0c2-0.1,3.6-1,4.4-2.8c0.8-2,0.5-4.1-1-5.6c-2.7-2.7-6-3.8-9.9-2.9c-1.4,0.3-2.6,1.1-2.4,2.7
					c0.2,1.8,1.6,1.6,2.9,1.6c1.3,0,2.7-0.2,4,0.2c0.9,0.3,1.5,0.8,1.5,1.8c0,1.1-0.7,1.4-1.7,1.5c-2.2,0.1-4.5,0.1-6.7,0.1
					c-1.4,0-1.7-0.8-1.3-2c0.5-1.5-0.3-2.2-1.5-2.6c-1.3-0.5-1.7,0.6-2.2,1.5c-0.2,0.4-0.5,0.9-0.7,1.3c-1.4,2.9-0.6,4.5,2.5,5.3
					c1.4,0.4,3.7-0.1,3.9,1.9c0.3,2.1-2.1,2.1-3.4,2.7c-2.6,1.3-5.4,2.3-8,3.6c-1.6,0.8-2.2,0.4-2.3-1.3C35.6,58,37.9,50.6,43,44.2
					c9.9-12.5,25.6-16.3,40.2-9.9C85.9,35.5,88.3,37.1,90.7,39.3z"/>
				<path class="st8" d="M99.2,76c-2.4-3.8-4.5-7.1-6.7-10.5c-0.9-1.5-1.7-3.2-3.8-3.2c-2.2,0.1-3.4,1.6-4.2,3.4
					c-1.7,3.7-3.5,7.4-5.1,11.1c-1.1,2.5-2.4,4.7-4.7,6.4c-1.2,0.9-2.3,1.9-1,3.5c1.3,1.7,2.7,1.5,4.3,0.3c4-3,5.9-7.4,8-11.6
					c0.7-1.5,1.1-3.7,2.8-3.8c1.6-0.1,2.2,2,3.1,3.2c1.3,1.7,2.3,3.5,3.6,5.1c0.8,1.1,0.7,2-0.1,3.1c-12.1,16.4-37,17.7-50.8,2.5
					c-1-1.1-1.2-1.9,0-3.1c1.6-1.6,2.9-3.4,4.3-5.2c1.7-2.1,2.7-2.2,4.7-0.3c2.2,2.1,4.4,4.3,6.6,6.4c1.2,1.2,2.5,1.6,3.9,0.1
					c1.4-1.5,1-2.7-0.3-4c-3.4-3.3-6.7-6.7-10.1-10c-0.7-0.6-1.5-1.3-1-2.3c0.5-1,1.6-0.8,2.5-0.6c2.7,0.7,5.5,1.4,8.1,2.5
					c4.2,1.8,7.8,1.2,11.5-1.3c3.4-2.4,7.1-4.3,10.7-6.4c2-1.2,4.1-1.3,6.2-0.4c2.8,1.2,5.6,2.5,8.5,3.7c1,0.4,1.7,0.9,1.5,2.2
					C101.3,69.8,100.8,72.7,99.2,76z"/>
				<path class="st8" d="M98.3,49.2c1.7,3.1,2.5,6.2,3.1,9.4c0.2,0.9-0.2,1.2-1.1,0.9c-2.7-1-5.3-1.9-8-2.8
					c-0.6-0.2-1.1-0.5-1.2-1.1c-0.1-0.7,0.4-1.2,1-1.2C95.1,53.7,96.6,51.6,98.3,49.2z"/>
				<path class="st8" d="M40.5,79.1c-0.5-0.1-0.8-0.4-0.9-0.8c-0.6-1.4-1.1-2.8-1.7-4.2c-0.4-0.9,0.1-1.4,0.8-1.8
					c2.6-1.2,5.1-2.4,7.7-3.6c0.4-0.2,1-0.4,1.3,0.2c0.3,0.4,0.1,0.8-0.2,1.1c-2.2,2.8-4.4,5.7-6.5,8.5C40.9,78.9,40.7,79,40.5,79.1
					z"/>
				<path class="st4" d="M115.2,43.2c2.8,1.6,8.5,10.5,10.8,16.2c1,1.7,1.4,5.1,2.4,7.7c0,2.2,0,5,0,7.2c-0.8,0.2-0.7,0.9-0.8,1.4
					c-1.7,7.1-4.4,13.8-8.5,19.9c-7.9,11.8-18.5,20-32,24.3c-3.5,1.1-7.1,2-10.7,3c-5.5,0-11,0-16.5,0c-0.3-0.8-1.1-0.6-1.7-0.7
					c-6-1.2-11.8-2.9-17.2-5.8c-7-3.7-13.3-8.1-18.2-14.4c0.9,0,1.5,0.5,2.3,0.9c12.3,6.7,25.4,9.5,39.4,7.3
					c1.4-0.2,2.8-0.4,4.2-0.7c11.3-2.6,21.2-7.8,29.4-16c6.5-6.4,11.3-13.9,14.5-22.5C115.7,62.4,115.6,52.2,115.2,43.2z"/>
				<path class="st3" d="M60.8,2.7c5.2,0,10.3,0,15.5,0c0.4,0.8,1.1,0.5,1.7,0.7c5.3,1,10.5,2.3,15.5,4.6
					c16.2,7.4,27.4,19.4,32.7,36.5c0.7,2.1,0.8,4.4,2.1,6.2c0,5.7,0,11.3,0,17c-0.9-2.6-1.8-5.2-2.8-7.7c-2.3-5.7-5.2-11.5-9.5-15.9
					c-0.5-0.7-1-1.2-1.6-1.8c-8.1-8.8-17.7-15-29.3-18c-16.9-4.5-32.8-2.2-47.8,6.7c-4.4,2.6-9,7.4-13,10.5c-0.4,0.5,1-4.5,1.3-6.2
					c2.8-10.2,8.1-18.1,15.4-25.8c5-3.5,11-4.5,16.9-5.9C58.9,3.5,60.1,3.8,60.8,2.7z"/>
			</g>
		</g>
	</g>
</g>
<g>
	<path class="st11" d="M181.4,50.2c-1.3-1.8-3.1-3.2-5.3-4c-2.2-0.8-4.3-1.3-6.3-1.3c-2.6,0-5,0.5-7.2,1.4c-2.2,1-4,2.3-5.6,4
		c-1.6,1.7-2.8,3.6-3.6,5.9c-0.8,2.3-1.3,4.7-1.3,7.3c0,2.8,0.4,5.3,1.2,7.6c0.8,2.3,2,4.3,3.5,5.9c1.5,1.7,3.3,2.9,5.4,3.9
		c2.1,0.9,4.5,1.4,7.1,1.4c2.7,0,5.2-0.5,7.3-1.6c2.1-1.1,3.8-2.5,5.1-4.3l7.3,5.1c-2.3,2.8-5,5-8.3,6.6c-3.3,1.6-7.1,2.3-11.4,2.3
		c-4,0-7.6-0.7-11-2c-3.3-1.3-6.2-3.2-8.6-5.5c-2.4-2.4-4.3-5.2-5.6-8.5c-1.3-3.3-2-6.9-2-10.9c0-4.1,0.7-7.8,2.1-11.1
		c1.4-3.3,3.4-6.1,5.8-8.4c2.5-2.3,5.4-4.1,8.7-5.3c3.4-1.2,7-1.9,10.9-1.9c1.6,0,3.3,0.2,5.1,0.5c1.8,0.3,3.5,0.8,5.1,1.4
		c1.6,0.6,3.2,1.5,4.6,2.4c1.4,1,2.7,2.1,3.7,3.5L181.4,50.2z"/>
	<path class="st11" d="M215.9,84.8h-0.2c-0.9,1.5-2.3,2.8-4.2,3.8c-1.9,1-4.1,1.5-6.6,1.5c-1.4,0-2.8-0.2-4.4-0.5
		c-1.5-0.4-2.9-1-4.2-1.8c-1.3-0.8-2.3-1.9-3.2-3.3c-0.8-1.4-1.3-3.1-1.3-5.1c0-2.6,0.7-4.7,2.2-6.2c1.5-1.5,3.3-2.7,5.7-3.5
		c2.3-0.8,4.9-1.4,7.7-1.6c2.8-0.3,5.6-0.4,8.2-0.4v-0.9c0-2.2-0.8-3.8-2.3-4.8c-1.6-1-3.4-1.5-5.6-1.5c-1.8,0-3.6,0.4-5.3,1.2
		c-1.7,0.8-3.1,1.7-4.2,2.8l-4.5-5.3c2-1.8,4.2-3.2,6.8-4.1c2.6-0.9,5.2-1.4,7.8-1.4c3.1,0,5.6,0.4,7.6,1.3c2,0.9,3.6,2,4.7,3.4
		c1.2,1.4,2,3,2.4,4.7c0.5,1.7,0.7,3.5,0.7,5.2v21h-8.1V84.8z M215.8,73.4h-1.9c-1.4,0-2.9,0.1-4.4,0.2c-1.5,0.1-3,0.4-4.2,0.8
		c-1.3,0.4-2.4,1-3.2,1.7c-0.9,0.7-1.3,1.8-1.3,3.1c0,0.8,0.2,1.5,0.5,2.1c0.4,0.6,0.8,1,1.4,1.3c0.6,0.3,1.2,0.6,1.9,0.7
		c0.7,0.1,1.4,0.2,2.2,0.2c3,0,5.2-0.8,6.8-2.4c1.5-1.6,2.3-3.7,2.3-6.5V73.4z"/>
	<path class="st11" d="M229.9,34.8h8.6v54.4h-8.6V34.8z"/>
	<path class="st11" d="M243.4,42.9c0-1.4,0.5-2.6,1.5-3.6c1-1,2.3-1.5,3.9-1.5s2.9,0.5,4,1.5c1.1,1,1.6,2.2,1.6,3.7
		c0,1.5-0.5,2.7-1.6,3.7c-1.1,1-2.4,1.5-4,1.5s-2.9-0.5-3.9-1.5C243.9,45.5,243.4,44.3,243.4,42.9z M244.6,54.6h8.6v34.6h-8.6V54.6z
		"/>
	<path class="st11" d="M299.3,50.2c-1.3-1.8-3.1-3.2-5.3-4c-2.2-0.8-4.3-1.3-6.3-1.3c-2.6,0-5,0.5-7.2,1.4c-2.2,1-4,2.3-5.6,4
		c-1.6,1.7-2.8,3.6-3.6,5.9c-0.8,2.3-1.3,4.7-1.3,7.3c0,2.8,0.4,5.3,1.2,7.6c0.8,2.3,2,4.3,3.5,5.9c1.5,1.7,3.3,2.9,5.4,3.9
		c2.1,0.9,4.5,1.4,7.1,1.4c2.7,0,5.2-0.5,7.3-1.6s3.8-2.5,5.1-4.3l7.3,5.1c-2.3,2.8-5,5-8.3,6.6c-3.3,1.6-7.1,2.3-11.4,2.3
		c-4,0-7.6-0.7-11-2c-3.3-1.3-6.2-3.2-8.6-5.5c-2.4-2.4-4.3-5.2-5.6-8.5c-1.3-3.3-2-6.9-2-10.9c0-4.1,0.7-7.8,2.1-11.1
		c1.4-3.3,3.4-6.1,5.8-8.4c2.5-2.3,5.4-4.1,8.7-5.3c3.4-1.2,7-1.9,10.9-1.9c1.6,0,3.3,0.2,5.1,0.5c1.8,0.3,3.5,0.8,5.1,1.4
		c1.6,0.6,3.2,1.5,4.6,2.4c1.4,1,2.7,2.1,3.7,3.5L299.3,50.2z"/>
	<path class="st11" d="M333.8,84.8h-0.2c-0.9,1.5-2.3,2.8-4.2,3.8c-1.9,1-4.1,1.5-6.6,1.5c-1.4,0-2.8-0.2-4.4-0.5
		c-1.5-0.4-2.9-1-4.2-1.8c-1.3-0.8-2.3-1.9-3.2-3.3c-0.8-1.4-1.3-3.1-1.3-5.1c0-2.6,0.7-4.7,2.2-6.2c1.5-1.5,3.3-2.7,5.7-3.5
		c2.3-0.8,4.9-1.4,7.7-1.6c2.8-0.3,5.6-0.4,8.2-0.4v-0.9c0-2.2-0.8-3.8-2.3-4.8c-1.6-1-3.4-1.5-5.6-1.5c-1.8,0-3.6,0.4-5.3,1.2
		c-1.7,0.8-3.1,1.7-4.2,2.8l-4.5-5.3c2-1.8,4.2-3.2,6.8-4.1c2.6-0.9,5.2-1.4,7.8-1.4c3.1,0,5.6,0.4,7.6,1.3c2,0.9,3.6,2,4.7,3.4
		c1.2,1.4,2,3,2.4,4.7s0.7,3.5,0.7,5.2v21h-8.1V84.8z M333.7,73.4h-1.9c-1.4,0-2.9,0.1-4.4,0.2c-1.5,0.1-3,0.4-4.2,0.8
		c-1.3,0.4-2.4,1-3.2,1.7c-0.9,0.7-1.3,1.8-1.3,3.1c0,0.8,0.2,1.5,0.5,2.1c0.4,0.6,0.8,1,1.4,1.3c0.6,0.3,1.2,0.6,1.9,0.7
		c0.7,0.1,1.4,0.2,2.2,0.2c3,0,5.2-0.8,6.8-2.4c1.5-1.6,2.3-3.7,2.3-6.5V73.4z"/>
	<path class="st11" d="M347.7,54.6h8.3v5.8h0.1c1-2,2.3-3.6,4-4.9c1.7-1.2,3.7-1.9,6-1.9c0.3,0,0.7,0,1.1,0c0.4,0,0.7,0.1,1,0.2v7.9
		c-0.6-0.1-1.1-0.2-1.5-0.3c-0.4,0-0.8-0.1-1.2-0.1c-2,0-3.6,0.4-4.8,1.1c-1.2,0.7-2.1,1.6-2.8,2.6c-0.7,1-1.1,2-1.4,3.1
		c-0.2,1.1-0.4,1.9-0.4,2.5v18.5h-8.6V54.6z"/>
	<path class="st11" d="M404.1,72.3c0,0.4,0,0.8,0,1.2c0,0.4,0,0.8-0.1,1.2h-26.3c0.1,1.2,0.4,2.4,1,3.4c0.6,1,1.3,1.9,2.2,2.7
		c0.9,0.7,1.9,1.3,3.1,1.8c1.2,0.4,2.4,0.6,3.6,0.6c2.2,0,4-0.4,5.5-1.2c1.5-0.8,2.7-1.9,3.7-3.3l5.8,4.6c-3.4,4.6-8.4,6.9-14.8,6.9
		c-2.7,0-5.2-0.4-7.4-1.3c-2.3-0.8-4.2-2-5.9-3.6c-1.7-1.5-3-3.4-3.9-5.7c-0.9-2.2-1.4-4.8-1.4-7.6c0-2.8,0.5-5.3,1.4-7.6
		c0.9-2.3,2.2-4.2,3.9-5.8c1.6-1.6,3.6-2.9,5.8-3.7c2.2-0.9,4.6-1.3,7.2-1.3c2.4,0,4.6,0.4,6.7,1.2c2,0.8,3.8,2,5.3,3.5
		c1.5,1.6,2.7,3.5,3.5,5.8C403.7,66.5,404.1,69.2,404.1,72.3z M395.5,68.5c0-1.1-0.2-2.2-0.5-3.2c-0.3-1-0.8-1.9-1.5-2.7
		c-0.7-0.8-1.5-1.4-2.6-1.8c-1-0.5-2.2-0.7-3.6-0.7c-2.6,0-4.8,0.8-6.6,2.3c-1.8,1.6-2.8,3.6-3,6H395.5z"/>
	<path class="st11" d="M428.5,63.9c-0.8-1-1.8-1.9-3.2-2.6c-1.3-0.7-2.8-1.1-4.4-1.1c-1.4,0-2.7,0.3-3.8,0.9
		c-1.2,0.6-1.7,1.5-1.7,2.9c0,1.3,0.6,2.3,1.9,2.8c1.3,0.6,3.1,1.1,5.6,1.7c1.3,0.3,2.6,0.7,3.9,1.2c1.3,0.5,2.5,1.1,3.6,1.9
		s2,1.8,2.6,3c0.7,1.2,1,2.6,1,4.3c0,2.1-0.4,3.9-1.2,5.4c-0.8,1.5-1.8,2.7-3.2,3.6c-1.3,0.9-2.9,1.6-4.6,2
		c-1.8,0.4-3.6,0.6-5.4,0.6c-2.7,0-5.3-0.5-7.8-1.5c-2.5-1-4.7-2.4-6.3-4.2l5.7-5.3c1,1.2,2.2,2.3,3.7,3.1c1.5,0.8,3.2,1.2,5.1,1.2
		c0.6,0,1.3-0.1,1.9-0.2c0.6-0.1,1.2-0.4,1.8-0.7c0.6-0.3,1-0.7,1.3-1.3c0.3-0.5,0.5-1.2,0.5-1.9c0-1.4-0.7-2.5-2-3.1
		c-1.3-0.6-3.3-1.2-5.9-1.9c-1.3-0.3-2.6-0.7-3.8-1.1c-1.2-0.5-2.3-1.1-3.3-1.8c-1-0.7-1.7-1.7-2.3-2.8c-0.6-1.1-0.9-2.5-0.9-4.1
		c0-1.9,0.4-3.6,1.2-5c0.8-1.4,1.8-2.5,3.1-3.4c1.3-0.9,2.8-1.5,4.4-2c1.6-0.4,3.3-0.6,5-0.6c2.5,0,4.9,0.4,7.3,1.3
		c2.4,0.9,4.3,2.2,5.7,4L428.5,63.9z"/>
</g>
</svg>
