<?xml version="1.0" encoding="utf-8"?>
<!-- Generator: Adobe Illustrator 19.1.0, SVG Export Plug-In . SVG Version: 6.00 Build 0)  -->
<svg version="1.1" id="Layer_1" xmlns="http://www.w3.org/2000/svg" xmlns:xlink="http://www.w3.org/1999/xlink" x="0px" y="0px"
	 viewBox="0 0 118.3 118.3" style="enable-background:new 0 0 118.3 118.3;" xml:space="preserve">
<style type="text/css">
	.st0{clip-path:url(#SVGID_2_);}
	.st1{fill:#FFFFFC;}
	.st2{fill:#F7A01D;}
	.st3{fill:#F9FCFA;}
	.st4{fill:#FDBE11;}
	.st5{fill:#A5CE39;}
	.st6{fill:#0CBED1;}
</style>
<g>
	<g>
		<defs>
			<circle id="SVGID_1_" cx="59.2" cy="59.2" r="59.2"/>
		</defs>
		<clipPath id="SVGID_2_">
			<use xlink:href="#SVGID_1_"  style="overflow:visible;"/>
		</clipPath>
		<g id="_x39_y6FA9.tif_2_" class="st0">
			<g>
				<path class="st1" d="M51.8-0.8c-0.7,1.1-1.9,0.8-2.9,1c-5.8,1.4-11.7,2.6-16.7,6.1c-2.6,0.4-4.6,2.2-6.7,3.6
					C12.4,19.1,3.9,31.4,0.3,47c-0.2,0.7,0,1.6-1,1.8c0-15.9,0-31.8,0-47.7c0-1.6,0.4-1.9,1.9-1.9C18.1-0.7,34.9-0.8,51.8-0.8z"/>
				<path class="st1" d="M67.3,119.3c3.6-1,7.2-1.8,10.7-3c13.5-4.3,24.1-12.5,32-24.3c4.1-6.1,6.8-12.8,8.5-19.9
					c0.1-0.5,0.1-1.2,0.8-1.4c0,15.6,0,31.2,0,46.8c0,1.5-0.3,1.8-1.8,1.8C100.9,119.3,84.1,119.3,67.3,119.3z"/>
				<path class="st1" d="M-0.7,70.8c1.7,2.4,1.8,5.4,2.8,8c2.6,7,6.1,13.4,10.9,19c0.2,0.3,0.4,0.6,0.8,0.5l-0.2,0
					c4.9,6.3,11.2,10.8,18.2,14.4c5.4,2.8,11.3,4.5,17.2,5.8c0.6,0.1,1.4-0.1,1.7,0.7c-16.6,0-33.1,0-49.7,0c-1.6,0-1.9-0.3-1.9-1.9
					C-0.7,101.9-0.7,86.4-0.7,70.8z"/>
				<path class="st1" d="M119.4,47.3c-1.3-1.9-1.4-4.2-2.1-6.2c-5.3-17.2-16.5-29.1-32.7-36.5c-5-2.3-10.2-3.5-15.5-4.6
					c-0.6-0.1-1.4,0.1-1.7-0.7c16.8,0,33.5,0,50.3,0c1.5,0,1.8,0.3,1.8,1.8C119.3,16.4,119.4,31.9,119.4,47.3z"/>
				<path class="st2" d="M26.3,84.9c-8-11-11.8-23.5-11.5-37.1c0-1.3,0-2.7,0.1-4c0.4-2.2,0.7-4.3,1.1-6.5c0.1-0.2,0.3-0.4,0.4-0.6
					l0,0c-0.3-1.3,0.3-2.5,0.6-3.6c2.8-10.2,8-19.1,15.3-26.7c-2.6,0.4-4.6,2.2-6.7,3.6C12.4,19.1,3.9,31.4,0.3,47
					c-0.2,0.7,0,1.6-1,1.8c0,2.5,0,5,0,7.5c0,4.8,0,9.7,0,14.5c1.7,2.4,1.8,5.4,2.8,8c2.6,7,6.1,13.4,10.9,19
					c0.3,0.2,0.5,0.3,0.8,0.5l-0.2,0c0.9,0,2.1,1.1,2.8,1.5c12.3,6.7,24.9,9.2,38.9,7C43.5,102.7,33.7,95.1,26.3,84.9z"/>
				<path class="st3" d="M14.5,43.3c0.4-2.2,0.7-4.3,1.1-6.5c0.1-0.2,0.3-0.4,0.4-0.6l0,0c4-3.1,7.6-6.6,12-9.2
					c15-8.9,31-11.2,47.8-6.7c11.6,3.1,21.2,9.3,29.3,18c0.6,0.7,1,1.5,1.6,2.2c0.4,9-0.3,17.8-3.5,26.3c-3.2,8.6-8,16.1-14.5,22.5
					c-8.2,8.2-18.2,13.3-29.4,16c-1.4,0.3-2.8,0.5-4.2,0.7c-11.9-4.2-21.6-11.5-29.1-21.7c-8-11-11.8-23.5-11.5-37.1
					C14.5,45.9,14.5,44.6,14.5,43.3z M80.4,36.4c-2.4-2.3-4.9-3.9-7.5-5c-14.6-6.4-30.3-2.7-40.2,9.9c-5.1,6.5-7.4,13.9-6.8,22.2
					c0.1,1.8,0.7,2.1,2.3,1.3c2.6-1.3,5.4-2.3,8-3.6c1.3-0.7,3.6-0.7,3.4-2.7c-0.2-2-2.5-1.6-3.9-1.9c-3.1-0.8-4-2.4-2.5-5.3
					c0.2-0.4,0.5-0.9,0.7-1.3c0.5-0.9,0.9-2,2.2-1.5c1.2,0.4,2,1.2,1.5,2.6c-0.4,1.2,0,2,1.3,2c2.2,0,4.5,0,6.7-0.1
					c0.9,0,1.6-0.4,1.7-1.5c0-1-0.6-1.5-1.5-1.8c-1.3-0.4-2.7-0.1-4-0.2c-1.2,0-2.7,0.1-2.9-1.6c-0.2-1.6,1-2.4,2.4-2.7
					c3.8-0.9,7.1,0.2,9.9,2.9c1.6,1.5,1.8,3.6,1,5.6c-0.8,1.8-2.4,2.7-4.4,2.8c-0.6,0-1.2,0-1.7,0c-0.9,0.1-1.7,0.6-1.7,1.5
					c-0.1,1,0.9,1,1.6,1.1c2.3,0.2,4.4,0.9,6.4,2c3.5,1.8,6.9,1.7,10.2-0.3c4.1-2.5,8.1-5.3,12.5-7.2c0.4-0.2,1-0.6,1-1
					c0.1-0.7-0.7-0.8-1.2-1.1c-2.2-1-4.4-1.9-6.4-3.4c-1-0.7-1.8-1.5-0.7-2.6c1.2-1.3,2.1-2.8,2.8-4.4c0.4-0.8,1.1-1.7,2.1-1.3
					c1,0.4,1.1,1.3,1,2.3c-0.5,3.7,0.2,4.6,3.8,5.2c1.9,0.3,4.3,0.9,5.2-1.5c0.9-2.4-1.1-3.5-2.9-4.6c-0.3-0.2-0.6-0.3-0.9-0.5
					c-1-0.7-2.3-1.4-2.1-2.8C77.2,36.2,78.8,36.8,80.4,36.4z M88.9,73c1.5-3.3,2-6.1,2.4-9c0.2-1.3-0.5-1.8-1.5-2.2
					c-2.8-1.2-5.6-2.5-8.5-3.7c-2.1-0.9-4.2-0.9-6.2,0.4c-3.6,2.2-7.3,4.1-10.7,6.4c-3.7,2.6-7.3,3.1-11.5,1.3
					c-2.6-1.1-5.4-1.7-8.1-2.5c-0.8-0.2-1.9-0.5-2.5,0.6c-0.6,1.1,0.3,1.7,1,2.3c3.4,3.3,6.7,6.7,10.1,10c1.4,1.3,1.8,2.5,0.3,4
					c-1.4,1.5-2.7,1-3.9-0.1c-2.2-2.1-4.4-4.3-6.6-6.4c-2-1.9-3-1.8-4.7,0.3c-1.4,1.7-2.7,3.6-4.3,5.2c-1.2,1.2-1,1.9,0,3.1
					C48.2,97.8,73,96.6,85.1,80.1c0.8-1.1,1-2,0.1-3.1c-1.2-1.7-2.3-3.5-3.6-5.1c-0.9-1.2-1.6-3.4-3.1-3.2c-1.7,0.2-2.1,2.3-2.8,3.8
					c-2.1,4.3-4,8.6-8,11.6c-1.6,1.2-3,1.4-4.3-0.3c-1.2-1.6-0.1-2.7,1-3.5c2.2-1.6,3.6-3.9,4.7-6.4c1.6-3.7,3.4-7.4,5.1-11.1
					c0.8-1.8,2-3.3,4.2-3.4c2.1-0.1,2.9,1.7,3.8,3.2C84.4,65.9,86.5,69.2,88.9,73z M88,46.2c-1.7,2.4-3.3,4.6-6.2,5
					c-0.6,0.1-1.1,0.6-1,1.2c0.1,0.7,0.6,0.9,1.2,1.1c2.7,1,5.3,1.9,8,2.8c1,0.3,1.3,0,1.1-0.9C90.5,52.4,89.7,49.3,88,46.2z
					 M30.2,76.2c0.2-0.1,0.4-0.3,0.5-0.5c2.2-2.8,4.4-5.7,6.5-8.5c0.3-0.3,0.4-0.8,0.2-1.1c-0.4-0.5-0.9-0.4-1.3-0.2
					c-2.6,1.2-5.1,2.4-7.7,3.6c-0.8,0.4-1.2,0.9-0.8,1.8c0.6,1.4,1.1,2.8,1.7,4.2C29.5,75.8,29.7,76.1,30.2,76.2z"/>
				<path class="st4" d="M13.8,98.4c-0.4,0.1-0.6-0.2-0.8-0.5C13.3,98,13.5,98.2,13.8,98.4z"/>
				<path class="st5" d="M16.3,36.8c-0.1,0.2-0.3,0.4-0.4,0.6C16.1,37.1,16.2,36.9,16.3,36.8z"/>
				<path class="st6" d="M81.7,35.9c-1.6,0.4-3.2-0.1-3.5,1.6c-0.2,1.4,1,2.2,2.1,2.8c0.3,0.2,0.6,0.3,0.9,0.5
					c1.8,1,3.8,2.2,2.9,4.6c-0.9,2.5-3.3,1.8-5.2,1.5c-3.6-0.5-4.2-1.5-3.8-5.2c0.1-1,0-1.9-1-2.3c-1.1-0.4-1.7,0.5-2.1,1.3
					c-0.8,1.6-1.6,3.1-2.8,4.4c-1.1,1.1-0.2,2,0.7,2.6c2,1.4,4.2,2.3,6.4,3.4c0.5,0.2,1.3,0.3,1.2,1.1c-0.1,0.4-0.6,0.8-1,1
					c-4.4,2-8.4,4.8-12.5,7.2c-3.3,2-6.7,2.1-10.2,0.3c-2-1-4.1-1.8-6.4-2c-0.7-0.1-1.7-0.1-1.6-1.1c0.1-0.9,0.8-1.4,1.7-1.5
					c0.6-0.1,1.2,0,1.7,0c2-0.1,3.6-1,4.4-2.8c0.8-2,0.5-4.1-1-5.6c-2.7-2.7-6-3.8-9.9-2.9c-1.4,0.3-2.6,1.1-2.4,2.7
					c0.2,1.8,1.6,1.6,2.9,1.6c1.3,0,2.7-0.2,4,0.2c0.9,0.3,1.5,0.8,1.5,1.8c0,1.1-0.7,1.4-1.7,1.5c-2.2,0.1-4.5,0.1-6.7,0.1
					c-1.4,0-1.7-0.8-1.3-2c0.5-1.5-0.3-2.2-1.5-2.6c-1.3-0.5-1.7,0.6-2.2,1.5c-0.2,0.4-0.5,0.9-0.7,1.3c-1.4,2.9-0.6,4.5,2.5,5.3
					c1.4,0.4,3.7-0.1,3.9,1.9c0.3,2.1-2.1,2.1-3.4,2.7c-2.6,1.3-5.4,2.3-8,3.6c-1.6,0.8-2.2,0.4-2.3-1.3c-0.6-8.3,1.7-15.7,6.8-22.2
					c9.9-12.5,25.6-16.3,40.2-9.9C76.9,32,79.3,33.6,81.7,35.9z"/>
				<path class="st6" d="M90.2,72.5c-2.4-3.8-4.5-7.1-6.7-10.5c-0.9-1.5-1.7-3.2-3.8-3.2c-2.2,0.1-3.4,1.6-4.2,3.4
					c-1.7,3.7-3.5,7.4-5.1,11.1c-1.1,2.5-2.4,4.7-4.7,6.4c-1.2,0.9-2.3,1.9-1,3.5c1.3,1.7,2.7,1.5,4.3,0.3c4-3,5.9-7.4,8-11.6
					c0.7-1.5,1.1-3.7,2.8-3.8c1.6-0.1,2.2,2,3.1,3.2c1.3,1.7,2.3,3.5,3.6,5.1c0.8,1.1,0.7,2-0.1,3.1c-12.1,16.4-37,17.7-50.8,2.5
					c-1-1.1-1.2-1.9,0-3.1c1.6-1.6,2.9-3.4,4.3-5.2c1.7-2.1,2.7-2.2,4.7-0.3c2.2,2.1,4.4,4.3,6.6,6.4c1.2,1.2,2.5,1.6,3.9,0.1
					c1.4-1.5,1-2.7-0.3-4c-3.4-3.3-6.7-6.7-10.1-10c-0.7-0.6-1.5-1.3-1-2.3c0.5-1,1.6-0.8,2.5-0.6c2.7,0.7,5.5,1.4,8.1,2.5
					c4.2,1.8,7.8,1.2,11.5-1.3c3.4-2.4,7.1-4.3,10.7-6.4c2-1.2,4.1-1.3,6.2-0.4c2.8,1.2,5.6,2.5,8.5,3.7c1,0.4,1.7,0.9,1.5,2.2
					C92.3,66.4,91.8,69.2,90.2,72.5z"/>
				<path class="st6" d="M89.3,45.7c1.7,3.1,2.5,6.2,3.1,9.4c0.2,0.9-0.2,1.2-1.1,0.9c-2.7-1-5.3-1.9-8-2.8
					c-0.6-0.2-1.1-0.5-1.2-1.1c-0.1-0.7,0.4-1.2,1-1.2C86.1,50.3,87.6,48.1,89.3,45.7z"/>
				<path class="st6" d="M31.5,75.7c-0.5-0.1-0.8-0.4-0.9-0.8c-0.6-1.4-1.1-2.8-1.7-4.2c-0.4-0.9,0.1-1.4,0.8-1.8
					c2.6-1.2,5.1-2.4,7.7-3.6c0.4-0.2,1-0.4,1.3,0.2c0.3,0.4,0.1,0.8-0.2,1.1c-2.2,2.8-4.4,5.7-6.5,8.5
					C31.9,75.4,31.7,75.5,31.5,75.7z"/>
				<path class="st4" d="M106.2,39.7c2.8,1.6,8.5,10.5,10.8,16.2c1,1.7,1.4,5.1,2.4,7.7c0,2.2,0,5,0,7.2c-0.8,0.2-0.7,0.9-0.8,1.4
					c-1.7,7.1-4.4,13.8-8.5,19.9c-7.9,11.8-18.5,20-32,24.3c-3.5,1.1-7.1,2-10.7,3c-5.5,0-11,0-16.5,0c-0.3-0.8-1.1-0.6-1.7-0.7
					c-6-1.2-11.8-2.9-17.2-5.8c-7-3.7-13.3-8.1-18.2-14.4c0.9,0,1.5,0.5,2.3,0.9c12.3,6.7,25.4,9.5,39.4,7.3
					c1.4-0.2,2.8-0.4,4.2-0.7c11.3-2.6,21.2-7.8,29.4-16c6.5-6.4,11.3-13.9,14.5-22.5C106.7,58.9,106.6,48.7,106.2,39.7z"/>
				<path class="st5" d="M51.8-0.8c5.2,0,10.3,0,15.5,0c0.4,0.8,1.1,0.5,1.7,0.7c5.3,1,10.5,2.3,15.5,4.6
					c16.2,7.4,27.4,19.4,32.7,36.5c0.7,2.1,0.8,4.4,2.1,6.2c0,5.7,0,11.3,0,17c-0.9-2.6-1.8-5.2-2.8-7.7c-2.3-5.7-5.2-11.5-9.5-15.9
					c-0.5-0.7-1-1.2-1.6-1.8c-8.1-8.8-17.7-15-29.3-18c-16.9-4.5-32.8-2.2-47.8,6.7c-4.4,2.6-9,7.4-13,10.5c-0.4,0.5,1-4.5,1.3-6.2
					c2.8-10.2,8.1-18.1,15.4-25.8c5-3.5,11-4.5,16.9-5.9C49.9,0,51.1,0.3,51.8-0.8z"/>
			</g>
		</g>
	</g>
</g>
</svg>
