<?xml version="1.0" encoding="utf-8"?>
<!-- Generator: Adobe Illustrator 16.0.0, SVG Export Plug-In . SVG Version: 6.00 Build 0)  -->
<!DOCTYPE svg PUBLIC "-//W3C//DTD SVG 1.1//EN" "http://www.w3.org/Graphics/SVG/1.1/DTD/svg11.dtd">
<svg version="1.1" id="Layer_1" xmlns="http://www.w3.org/2000/svg" xmlns:xlink="http://www.w3.org/1999/xlink" x="0px" y="0px"
	 width="28.665px" height="18.21px" viewBox="0 0 28.665 18.21" enable-background="new 0 0 28.665 18.21" xml:space="preserve">
<path fill="#4B4B4B" d="M28.665,1.616c0,0.714-0.579,1.293-1.293,1.293H1.293C0.579,2.909,0,2.33,0,1.616V1.293
	C0,0.579,0.579,0,1.293,0h26.079c0.714,0,1.293,0.579,1.293,1.293V1.616z"/>
<path fill="#4B4B4B" d="M28.665,9.267c0,0.714-0.579,1.293-1.293,1.293H1.293C0.579,10.56,0,9.981,0,9.267V8.944
	c0-0.715,0.579-1.293,1.293-1.293h26.079c0.714,0,1.293,0.578,1.293,1.293V9.267z"/>
<path fill="#4B4B4B" d="M28.665,16.917c0,0.715-0.579,1.293-1.293,1.293H1.293C0.579,18.21,0,17.632,0,16.917v-0.322
	c0-0.715,0.579-1.293,1.293-1.293h26.079c0.714,0,1.293,0.578,1.293,1.293V16.917z"/>
</svg>
