<?xml version="1.0" encoding="utf-8"?>
<!-- Generator: Adobe Illustrator 16.0.0, SVG Export Plug-In . SVG Version: 6.00 Build 0)  -->
<!DOCTYPE svg PUBLIC "-//W3C//DTD SVG 1.1//EN" "http://www.w3.org/Graphics/SVG/1.1/DTD/svg11.dtd">
<svg version="1.1" id="Isolation_Mode" xmlns="http://www.w3.org/2000/svg" xmlns:xlink="http://www.w3.org/1999/xlink" x="0px"
	 y="0px" width="63.785px" height="58.114px" viewBox="0 0 63.785 58.114" enable-background="new 0 0 63.785 58.114"
	 xml:space="preserve">
<g>
	<path fill="#136D9C" d="M63.769,26.609c-0.02-0.73-0.498-1.189-0.955-1.68c-2.516-2.688-5.021-5.387-7.527-8.08
		c-0.074-0.082-0.148-0.168-0.238-0.27c0.666-0.92,1.178-1.914,1.508-3.002c1.74-5.744-1.707-11.838-7.518-13.258
		c-0.545-0.133-1.109-0.172-1.668-0.254C47.238,0.045,47.105,0.021,46.976,0c-0.295,0-0.588,0-0.881,0
		c-0.133,0.021-0.268,0.047-0.398,0.064c-0.559,0.08-1.125,0.117-1.672,0.244c-4.191,0.979-7.4,4.564-7.896,8.836
		c-0.365,3.146,0.408,5.957,2.564,8.326c2.58,2.832,5.795,3.908,9.562,3.381c1.215-0.172,2.355-0.588,3.441-1.209
		c0.662,0.705,1.32,1.4,1.979,2.102c2.246,2.385,4.486,4.773,6.738,7.152c0.1,0.104,0.262,0.211,0.395,0.213
		c1.586,0.021,2.471-0.58,2.977-1.998c0-0.158,0-0.316,0-0.475C63.779,26.629,63.769,26.619,63.769,26.609z M46.531,16.287
		c-3.205,0.01-5.787-2.521-5.801-5.688c-0.016-3.312,2.471-5.855,5.74-5.873c3.25-0.018,5.814,2.521,5.83,5.764
		C52.314,13.693,49.742,16.277,46.531,16.287z"/>
	<path fill="#136D9C" d="M55.531,58.116c-18.51,0-37.02,0-55.531,0c0-1.234,0-2.467,0-3.703c2.113,0.002,4.227,0.006,6.338,0.006
		c16.197,0,32.395,0,48.594,0c0.201,0,0.4-0.004,0.602-0.006C55.531,55.649,55.531,56.881,55.531,58.116z"/>
	<path fill="#136D9C" d="M2.15,53.377c0-1.221,0-2.402,0-3.629c17.066,0,34.127,0,51.215,0c0,1.197,0,2.396,0,3.629
		C36.312,53.377,19.251,53.377,2.15,53.377z"/>
	<path fill="#136D9C" d="M34.439,7.887c-1.709-1.363-2.701-2.158-6.26-4.988c-0.115-0.092-0.215-0.209-0.32-0.312
		c-0.062,0-0.125,0-0.186,0c-0.07,0.076-0.133,0.166-0.211,0.229c-4.682,3.721-9.365,7.438-14.047,11.158
		c-0.984,0.781-1.971,1.566-2.975,2.365c0.326,0.416,0.625,0.797,0.938,1.193C16.865,13.17,22.306,8.85,27.765,4.514
		c3.693,2.934,4.518,3.594,6.35,5.057C34.183,8.996,34.292,8.434,34.439,7.887z"/>
	<path fill="#136D9C" d="M39.468,25.928c-0.002-1.705-0.006-3.41,0.004-5.115c-2.893-1.834-4.922-4.902-5.354-8.465
		c-2.117-1.686-4.232-3.365-6.354-5.049c-4.58,3.637-9.139,7.258-13.734,10.908c0.615,0.488,1.201,0.938,1.762,1.414
		c0.133,0.113,0.258,0.324,0.258,0.488c0.018,1.93,0.012,3.857,0.01,5.783c0,0.092-0.025,0.18-0.045,0.318
		c-4.396,0-8.783,0-13.184,0c0,7.51,0,14.965,0,22.43c16.641,0,33.24,0,49.873,0c0-7.479,0-14.934,0-22.44
		c-4.416,0-8.801,0-13.195,0C39.488,26.078,39.468,26.004,39.468,25.928z M5.216,29.189c1.117,0,2.223,0,3.367,0
		c0,2.272,0,4.538,0,6.827c-1.119,0-2.225,0-3.367,0C5.216,33.747,5.216,31.481,5.216,29.189z M8.589,45.411
		c-1.109,0-2.227,0-3.377,0c0-2.246,0-4.504,0-6.811c1.131,0,2.232,0,3.377,0C8.589,40.866,8.589,43.122,8.589,45.411z
		 M15.544,45.422c-1.146,0-2.264,0-3.398,0c0-2.277,0-4.533,0-6.812c1.135,0,2.25,0,3.398,0
		C15.544,40.87,15.544,43.124,15.544,45.422z M15.554,36c-1.121,0-2.238,0-3.395,0c0-2.24,0-4.5,0-6.807c1.135,0,2.25,0,3.395,0
		C15.554,31.467,15.554,33.713,15.554,36z M33.021,19.656c1.125,0,2.24,0,3.396,0c0,2.256,0,4.521,0,6.812c-1.131,0-2.246,0-3.396,0
		C33.021,24.199,33.021,21.943,33.021,19.656z M26.056,14.152c1.146,0,2.266,0,3.416,0c0,4.109,0,8.199,0,12.314
		c-1.146,0-2.266,0-3.416,0C26.056,22.334,26.056,18.256,26.056,14.152z M29.47,29.209c0,2.262,0,4.52,0,6.803
		c-1.146,0-2.262,0-3.41,0c0-2.268,0-4.514,0-6.803C27.181,29.209,28.308,29.209,29.47,29.209z M19.111,19.664
		c1.111,0,2.24,0,3.398,0c0,2.254,0,4.51,0,6.797c-1.129,0-2.244,0-3.398,0C19.111,24.211,19.111,21.957,19.111,19.664z
		 M19.097,29.189c1.141,0,2.248,0,3.396,0c0,2.256,0,4.51,0,6.807c-1.115,0-2.244,0-3.396,0
		C19.097,33.737,19.097,31.491,19.097,29.189z M36.423,47.096c-5.783,0-11.541,0-17.326,0c0-2.836,0-5.648,0-8.486
		c5.777,0,11.535,0,17.326,0C36.423,41.422,36.423,44.233,36.423,47.096z M36.427,36.01c-1.141,0-2.256,0-3.408,0
		c0-2.277,0-4.533,0-6.819c1.145,0,2.26,0,3.408,0C36.427,31.469,36.427,33.725,36.427,36.01z M50.322,45.417
		c-1.117,0-2.232,0-3.383,0c0-2.26,0-4.518,0-6.816c1.141,0,2.246,0,3.383,0C50.322,40.87,50.322,43.127,50.322,45.417z
		 M46.935,29.195c1.131,0,2.246,0,3.389,0c0,2.272,0,4.528,0,6.823c-1.146,0-2.256,0-3.389,0
		C46.935,33.739,46.935,31.481,46.935,29.195z M39.982,29.193c1.139,0,2.254,0,3.4,0c0,2.276,0,4.534,0,6.823
		c-1.158,0-2.264,0-3.4,0C39.982,33.737,39.982,31.479,39.982,29.193z M39.976,38.608c1.141,0,2.258,0,3.402,0
		c0,2.262,0,4.516,0,6.805c-1.125,0-2.25,0-3.402,0C39.976,43.141,39.976,40.887,39.976,38.608z"/>
</g>
</svg>
