<?xml version="1.0" encoding="utf-8"?>
<!-- Generator: Adobe Illustrator 16.0.0, SVG Export Plug-In . SVG Version: 6.00 Build 0)  -->
<!DOCTYPE svg PUBLIC "-//W3C//DTD SVG 1.1//EN" "http://www.w3.org/Graphics/SVG/1.1/DTD/svg11.dtd">
<svg version="1.1" id="Layer_1" xmlns="http://www.w3.org/2000/svg" xmlns:xlink="http://www.w3.org/1999/xlink" x="0px" y="0px"
	 width="792px" height="1224px" viewBox="0 0 792 1224" enable-background="new 0 0 792 1224" xml:space="preserve">
<g>
	<path fill="#136E9D" d="M424.318,597.48c0.66-2.156,2.345-7.919,5.053-17.285c0.659-2.456,2.344-7.325,5.051-14.61
		c2.711-7.511,4.873-13.534,6.482-18.07c-4.761,3.196-9.592,7.435-14.497,12.716c-17.528,18.883-37.866,41.711-45.078,53.684
		c2.75-0.671,8.234-6.43,25.704-12.419C418.18,597.673,424.318,597.48,424.318,597.48L424.318,597.48z M421.209,609.536
		c-55.237,0-79.335,88.057-117.639,88.057c-8.69,0-15.413-3.902-20.167-11.709c-3.042-4.981-4.567-10.668-4.567-17.065
		c0-16.058,7.587-36.317,22.758-60.776c12.941-20.817,26.586-37.582,40.938-50.293c12.421-10.929,23.055-16.396,31.904-16.396
		c4.983,0,8.813,1.789,11.492,5.359c2.155,2.826,3.235,6.248,3.235,10.265c0,7.214-2.411,15.434-7.232,24.657
		c-4.228,7.96-9.493,15.101-15.796,21.426c-4.154,4.091-7.417,6.136-9.791,6.136c-1.557,0-3.005-0.782-4.339-2.345
		c-0.962-1.117-1.445-2.382-1.445-3.796c0-2.602,2.264-5.577,6.789-8.925c6.379-4.76,11.461-9.968,15.245-15.622
		c5.563-8.182,8.344-15.1,8.344-20.753c0-2.305-0.5-4.016-1.504-5.133c-1.001-1.115-2.507-1.674-4.512-1.674
		c-4.087,0-9.884,2.977-17.388,8.928c-8.547,6.695-17.577,15.81-27.086,27.339c-12.111,14.654-21.324,29.084-27.643,43.291
		c-6.538,14.729-9.807,27.304-9.807,37.717c0,4.985,1.444,9.225,4.336,12.72c3.19,3.942,7.085,6.085,11.683,5.915
		c17.495-0.648,39.316-40.599,46.046-49.884c66.784-92.173,71.873-92.417,81.985-102.007c5.876-5.65,10.375-8.479,13.495-8.479
		c1.935,0,3.609,0.783,5.021,2.344c1.19,1.412,1.785,2.976,1.785,4.683c0,2.084-1.038,5.726-3.115,10.93
		c-3.566,9.146-6.98,18.925-10.246,29.334c-2.821,9.221-4.713,16.285-5.679,21.198c1.337,0,2.228-0.039,2.674-0.118
		c2.151-0.072,3.935-0.109,5.342-0.109c4.306,0,6.455,1.639,6.455,4.909c0,1.416-0.464,2.81-1.387,4.186
		c-0.925,1.378-1.98,2.214-3.167,2.512c-0.445,0.146-1.666,0.22-3.664,0.22c-4.223,0-7.366,0.262-9.438,0.782
		c-0.79,2.337-2.819,22.194-5.833,22.866C420.005,638.34,420.703,612.171,421.209,609.536L421.209,609.536z"/>
	<g>
		<path fill="#E79024" d="M366.429,669.77c2.432,0,4.51,0.854,6.228,2.561c1.722,1.708,2.582,3.779,2.582,6.219
			c0,2.437-0.86,4.521-2.582,6.249c-1.718,1.725-3.796,2.586-6.228,2.586c-2.43,0-4.507-0.861-6.228-2.586
			c-1.719-1.728-2.58-3.812-2.58-6.249c0-2.439,0.86-4.511,2.58-6.219C361.921,670.623,363.999,669.77,366.429,669.77
			L366.429,669.77z"/>
		<path fill="#E79024" d="M420.312,646.428l-6.165,6.104c-3.9-4.125-8.445-6.188-13.639-6.188c-4.527,0-8.318,1.497-11.373,4.498
			c-3.056,2.999-4.583,6.646-4.583,10.938c0,4.439,1.583,8.199,4.754,11.282c3.17,3.085,7.083,4.625,11.734,4.625
			c3.021,0,5.574-0.636,7.648-1.907c2.075-1.273,3.748-3.265,5.021-5.975h-13.324v-8.209h23.146l0.062,1.939
			c0,4.025-1.044,7.841-3.133,11.448c-2.086,3.607-4.79,6.359-8.112,8.256c-3.32,1.897-7.214,2.847-11.681,2.847
			c-4.784,0-9.048-1.037-12.795-3.113c-3.75-2.076-6.714-5.031-8.896-8.868c-2.182-3.838-3.272-7.978-3.272-12.42
			c0-6.091,2.015-11.388,6.047-15.892c4.779-5.361,11.002-8.042,18.667-8.042c4.01,0,7.761,0.743,11.245,2.224
			C414.61,641.229,417.488,643.377,420.312,646.428L420.312,646.428z"/>
		<path fill="#E79024" d="M448.629,637.751c6.51,0,12.107,2.356,16.792,7.071c4.685,4.712,7.024,10.459,7.024,17.238
			c0,6.716-2.311,12.396-6.932,17.051c-4.621,4.649-10.229,6.975-16.822,6.975c-6.906,0-12.643-2.387-17.215-7.164
			c-4.57-4.776-6.854-10.448-6.854-17.021c0-4.398,1.062-8.446,3.191-12.136c2.13-3.693,5.057-6.618,8.779-8.775
			C440.316,638.832,444.33,637.751,448.629,637.751L448.629,637.751z M448.503,646.344c-4.239,0-7.807,1.479-10.698,4.439
			c-2.89,2.963-4.336,6.727-4.336,11.292c0,5.089,1.819,9.114,5.46,12.075c2.826,2.316,6.07,3.474,9.73,3.474
			c4.14,0,7.664-1.501,10.574-4.506c2.911-3.003,4.366-6.704,4.366-11.104c0-4.379-1.467-8.087-4.396-11.12
			C456.271,647.857,452.703,646.344,448.503,646.344L448.503,646.344z"/>
		<polygon fill="#E79024" points="472.609,638.904 481.618,638.904 493.188,671.601 504.99,638.904 513.959,638.904 497.35,684.933 
			488.896,684.933 472.609,638.904 		"/>
	</g>
</g>
</svg>
