<?xml version="1.0" encoding="utf-8"?>
<!-- Generator: Adobe Illustrator 16.0.0, SVG Export Plug-In . SVG Version: 6.00 Build 0)  -->
<!DOCTYPE svg PUBLIC "-//W3C//DTD SVG 1.1//EN" "http://www.w3.org/Graphics/SVG/1.1/DTD/svg11.dtd">
<svg version="1.1" id="Isolation_Mode" xmlns="http://www.w3.org/2000/svg" xmlns:xlink="http://www.w3.org/1999/xlink" x="0px"
	 y="0px" width="59.75px" height="59.764px" viewBox="0 0 59.75 59.764" enable-background="new 0 0 59.75 59.764"
	 xml:space="preserve">
<g id="Tywtpr.tif">
	<g>
		<path fill="#9EC7DB" d="M749.121,1732.643c-0.146,1.036-0.26,2.078-0.442,3.107c-1.207,6.85-4.436,12.59-9.604,17.223
			c-4.318,3.87-9.366,6.313-15.1,7.182c-8.699,1.313-16.577-0.743-23.458-6.254c-5.738-4.603-9.408-10.567-10.641-17.816
			c-1.857-10.951,1.404-20.282,9.594-27.794c4.242-3.892,9.317-6.193,14.993-7.147c0.923-0.156,1.856-0.248,2.786-0.367
			c1.327,0,2.655,0,3.982,0c0.929,0.119,1.86,0.213,2.783,0.365c5.303,0.892,10.062,3.006,14.192,6.447
			c5.657,4.716,9.176,10.702,10.469,17.969c0.186,1.027,0.296,2.068,0.441,3.104
			C749.121,1729.987,749.121,1731.315,749.121,1732.643z M719.234,1753.89c12.763,0.013,23.203-10.413,23.249-23.207
			c0.043-12.761-10.443-23.265-23.235-23.271c-12.769-0.006-23.202,10.408-23.245,23.207
			C695.96,1743.38,706.441,1753.881,719.234,1753.89z"/>
		<path fill="#9EC7DB" d="M715.89,1723.989c-2.192,0-4.362,0-6.584,0c-0.084-1.076,0.138-2.099,0.453-3.091
			c1.404-4.396,5.479-7.103,10.268-6.835c4.119,0.229,8.105,3.662,8.938,7.828c0.816,4.096-0.494,7.474-3.737,10.091
			c-1.212,0.976-2.133,2.137-2.494,3.671c-0.121,0.515-0.152,1.05-0.229,1.604c-2.153,0-4.321,0-6.541,0
			c-0.121-1.172,0.046-2.327,0.359-3.46c0.803-2.889,2.451-5.201,4.828-7.013c1.22-0.931,1.688-2.427,1.218-3.78
			c-0.479-1.381-1.794-2.317-3.243-2.313c-1.391,0.002-2.774,1.109-3.088,2.481C715.977,1723.422,715.943,1723.679,715.89,1723.989z
			"/>
		<path fill="#9EC7DB" d="M722.526,1747.238c-2.207,0-4.36,0-6.56,0c0-2.188,0-4.368,0-6.587c2.165,0,4.345,0,6.56,0
			C722.526,1742.83,722.526,1745.01,722.526,1747.238z"/>
	</g>
</g>
<g id="Tywtpr.tif_1_">
	<g>
		<path fill="#9EC7DB" d="M59.75,31.867c-0.146,1.036-0.26,2.078-0.442,3.107c-1.207,6.85-4.436,12.59-9.604,17.223
			c-4.318,3.87-9.366,6.313-15.1,7.182c-8.699,1.313-16.577-0.743-23.458-6.254C5.408,48.523,1.738,42.558,0.506,35.309
			C-1.352,24.358,1.91,15.027,10.1,7.515c4.242-3.892,9.317-6.193,14.993-7.147C26.016,0.211,26.949,0.119,27.879,0
			c1.327,0,2.655,0,3.982,0c0.929,0.119,1.86,0.213,2.783,0.365c5.303,0.892,10.062,3.006,14.192,6.447
			c5.657,4.716,9.176,10.702,10.469,17.969c0.186,1.027,0.296,2.068,0.441,3.104C59.75,29.211,59.75,30.539,59.75,31.867z
			 M29.863,53.115c12.763,0.013,23.203-10.413,23.249-23.207C53.155,17.147,42.669,6.643,29.877,6.636
			C17.108,6.63,6.675,17.044,6.632,29.843C6.589,42.605,17.07,53.106,29.863,53.115z"/>
		<path fill="#9EC7DB" d="M26.519,23.213c-2.192,0-4.362,0-6.584,0c-0.084-1.076,0.138-2.099,0.453-3.091
			c1.404-4.396,5.479-7.103,10.268-6.835c4.119,0.229,8.105,3.662,8.938,7.828c0.816,4.096-0.494,7.474-3.737,10.091
			c-1.212,0.976-2.133,2.137-2.494,3.671c-0.121,0.515-0.152,1.05-0.229,1.604c-2.153,0-4.321,0-6.541,0
			c-0.121-1.172,0.046-2.327,0.359-3.46c0.803-2.889,2.451-5.201,4.828-7.013c1.22-0.931,1.688-2.427,1.218-3.78
			c-0.479-1.381-1.794-2.317-3.243-2.313c-1.391,0.002-2.774,1.109-3.088,2.481C26.605,22.647,26.572,22.904,26.519,23.213z"/>
		<path fill="#9EC7DB" d="M33.155,46.462c-2.207,0-4.36,0-6.56,0c0-2.188,0-4.368,0-6.587c2.165,0,4.345,0,6.56,0
			C33.155,42.055,33.155,44.235,33.155,46.462z"/>
	</g>
</g>
</svg>
