<?xml version="1.0" encoding="utf-8"?>
<!-- Generator: Adobe Illustrator 16.0.0, SVG Export Plug-In . SVG Version: 6.00 Build 0)  -->
<!DOCTYPE svg PUBLIC "-//W3C//DTD SVG 1.1//EN" "http://www.w3.org/Graphics/SVG/1.1/DTD/svg11.dtd">
<svg version="1.1" id="Isolation_Mode" xmlns="http://www.w3.org/2000/svg" xmlns:xlink="http://www.w3.org/1999/xlink" x="0px"
	 y="0px" width="61.42px" height="59.657px" viewBox="0 0 61.42 59.657" enable-background="new 0 0 61.42 59.657"
	 xml:space="preserve">
<g>
	<path fill="#FFFFFF" d="M307.851,1759.993c9.164,0,18.329,0,27.493,0c0.251,0,0.501,0.002,0.751-0.01
		c1.119-0.062,2.015-0.766,2.364-1.818c0.163-0.498,0.106-0.816-0.403-1.133c-19.218-11.938-38.426-23.887-57.621-35.857
		c-0.771-0.48-1.412-0.393-2.08,0.049c-0.814,0.537-1.192,1.318-1.192,2.305c0.005,11.248,0.003,22.496,0.006,33.746
		c0,0.229,0.007,0.465,0.06,0.688c0.312,1.307,1.322,2.031,2.838,2.031C289.328,1759.995,298.589,1759.993,307.851,1759.993z
		 M282.894,1713.151c-0.019,0.123-0.041,0.195-0.041,0.27c-0.002,2.121-0.012,4.244,0.014,6.365
		c0.002,0.193,0.188,0.457,0.361,0.562c8.047,4.973,16.106,9.926,24.157,14.891c0.282,0.174,0.487,0.188,0.781,0.014
		c8.079-4.803,16.163-9.6,24.254-14.387c0.312-0.182,0.411-0.387,0.408-0.734c-0.014-2.084-0.006-4.168-0.007-6.25
		c0-0.762,0-0.762-0.738-0.762c-3.684-0.002-7.369,0.014-11.052-0.016c-0.551-0.006-0.747,0.174-0.905,0.678
		c-1.586,5.084-6.25,8.484-11.573,8.473c-5.335-0.012-10.019-3.471-11.562-8.572c-0.13-0.426-0.289-0.574-0.739-0.572
		c-4.264,0.018-8.525,0.01-12.789,0.012C283.272,1713.12,283.086,1713.139,282.894,1713.151z M338.582,1754.688
		c0-0.33,0-0.537,0-0.744c0-10.031,0-20.064-0.001-30.1c0-0.25-0.007-0.502-0.037-0.75c-0.117-1.01-0.677-1.697-1.59-2.104
		c-0.52-0.232-0.995-0.221-1.521,0.107c-8.268,5.166-16.55,10.316-24.824,15.471c-0.191,0.117-0.377,0.244-0.618,0.398
		C319.519,1742.875,328.982,1748.739,338.582,1754.688z"/>
	<path fill="#AA201C" d="M309.352,1700.336c0.675,0.148,1.357,0.256,2.018,0.451c4.28,1.27,7.239,5.404,6.979,9.725
		c-0.279,4.699-3.588,8.469-8.112,9.248c-5.431,0.938-10.601-2.857-11.312-8.303c-0.718-5.486,3.06-10.355,8.538-11.016
		c0.133-0.018,0.257-0.07,0.387-0.105C308.348,1700.336,308.85,1700.336,309.352,1700.336z"/>
	<path fill="#9EC7DB" d="M307.851,1759.993c-9.262,0-18.521,0.002-27.783-0.002c-1.517,0-2.526-0.723-2.84-2.031
		c-0.052-0.221-0.059-0.457-0.059-0.688c-0.003-11.248-0.001-22.496-0.006-33.746c0-0.984,0.377-1.768,1.193-2.303
		c0.666-0.441,1.31-0.531,2.08-0.051c19.194,11.973,38.402,23.922,57.62,35.857c0.512,0.316,0.566,0.635,0.403,1.133
		c-0.351,1.057-1.246,1.758-2.364,1.818c-0.25,0.012-0.5,0.01-0.751,0.01C326.18,1759.993,317.015,1759.993,307.851,1759.993z"/>
	<path fill="#9EC7DB" d="M282.894,1713.151c0.192-0.014,0.379-0.031,0.567-0.031c4.263-0.002,8.526,0.006,12.789-0.012
		c0.451-0.002,0.61,0.146,0.739,0.572c1.546,5.104,6.229,8.562,11.562,8.572c5.324,0.012,9.987-3.389,11.573-8.473
		c0.158-0.504,0.354-0.686,0.905-0.68c3.683,0.029,7.368,0.016,11.052,0.018c0.738,0,0.738,0,0.738,0.762
		c0.001,2.082-0.007,4.166,0.007,6.25c0.002,0.348-0.101,0.553-0.408,0.734c-8.091,4.787-16.175,9.584-24.254,14.387
		c-0.293,0.176-0.499,0.16-0.781-0.014c-8.051-4.965-16.109-9.918-24.156-14.891c-0.176-0.105-0.359-0.371-0.362-0.562
		c-0.025-2.121-0.017-4.244-0.013-6.365C282.854,1713.348,282.875,1713.274,282.894,1713.151z"/>
	<path fill="#9EC7DB" d="M338.582,1754.688c-9.6-5.947-19.063-11.812-28.594-17.721c0.239-0.154,0.427-0.281,0.618-0.398
		c8.274-5.152,16.558-10.305,24.824-15.471c0.527-0.328,1.003-0.342,1.521-0.107c0.913,0.406,1.473,1.096,1.59,2.104
		c0.03,0.248,0.037,0.5,0.037,0.75c0.001,10.033,0.001,20.066,0.001,30.1C338.582,1754.151,338.582,1754.358,338.582,1754.688z"/>
</g>
<g>
	<path fill="#FFFFFF" d="M30.688,59.656c9.164,0,18.329,0,27.493,0c0.251,0,0.501,0.002,0.751-0.01
		c1.119-0.062,2.015-0.766,2.364-1.818c0.163-0.498,0.106-0.816-0.403-1.133C41.676,44.757,22.468,32.808,3.272,20.837
		c-0.771-0.48-1.412-0.393-2.08,0.049C0.378,21.423,0,22.205,0,23.191c0.005,11.248,0.003,22.496,0.006,33.746
		c0,0.229,0.007,0.465,0.06,0.688c0.312,1.307,1.322,2.031,2.838,2.031C12.166,59.658,21.427,59.656,30.688,59.656z M5.731,12.814
		c-0.019,0.123-0.041,0.195-0.041,0.27c-0.002,2.121-0.012,4.244,0.014,6.365c0.002,0.193,0.188,0.457,0.361,0.562
		c8.047,4.973,16.106,9.926,24.157,14.891c0.282,0.174,0.487,0.188,0.781,0.014c8.079-4.803,16.163-9.6,24.254-14.387
		c0.312-0.182,0.411-0.387,0.408-0.734c-0.014-2.084-0.006-4.168-0.007-6.25c0-0.762,0-0.762-0.738-0.762
		c-3.684-0.002-7.369,0.014-11.052-0.016c-0.551-0.006-0.747,0.174-0.905,0.678c-1.586,5.084-6.25,8.484-11.573,8.473
		c-5.335-0.012-10.019-3.471-11.562-8.572c-0.13-0.426-0.289-0.574-0.739-0.572c-4.264,0.018-8.525,0.01-12.789,0.012
		C6.11,12.783,5.924,12.802,5.731,12.814z M61.42,54.351c0-0.33,0-0.537,0-0.744c0-10.031,0-20.064-0.001-30.1
		c0-0.25-0.007-0.502-0.037-0.75c-0.117-1.01-0.677-1.697-1.59-2.104c-0.52-0.232-0.995-0.221-1.521,0.107
		c-8.268,5.166-16.55,10.316-24.824,15.471c-0.191,0.117-0.377,0.244-0.618,0.398C42.356,42.539,51.82,48.402,61.42,54.351z"/>
	<path fill="#AA201C" d="M32.189,0c0.675,0.148,1.357,0.256,2.018,0.451c4.28,1.27,7.239,5.404,6.979,9.725
		c-0.279,4.699-3.588,8.469-8.112,9.248c-5.431,0.938-10.601-2.857-11.312-8.303C21.044,5.634,24.821,0.765,30.3,0.105
		c0.133-0.018,0.257-0.07,0.387-0.105C31.186,0,31.688,0,32.189,0z"/>
	<path fill="#9EC7DB" d="M30.688,59.656c-9.262,0-18.521,0.002-27.783-0.002c-1.517,0-2.526-0.723-2.84-2.031
		c-0.052-0.221-0.059-0.457-0.059-0.688C0.004,45.687,0.006,34.439,0.001,23.189c0-0.984,0.377-1.768,1.193-2.303
		c0.666-0.441,1.31-0.531,2.08-0.051c19.194,11.973,38.402,23.922,57.62,35.857c0.512,0.316,0.566,0.635,0.403,1.133
		c-0.351,1.057-1.246,1.758-2.364,1.818c-0.25,0.012-0.5,0.01-0.751,0.01C49.018,59.656,39.853,59.656,30.688,59.656z"/>
	<path fill="#9EC7DB" d="M5.731,12.814c0.192-0.014,0.379-0.031,0.567-0.031c4.263-0.002,8.526,0.006,12.789-0.012
		c0.451-0.002,0.61,0.146,0.739,0.572c1.546,5.104,6.229,8.562,11.562,8.572c5.324,0.012,9.987-3.389,11.573-8.473
		c0.158-0.504,0.354-0.686,0.905-0.68c3.683,0.029,7.368,0.016,11.052,0.018c0.738,0,0.738,0,0.738,0.762
		c0.001,2.082-0.007,4.166,0.007,6.25c0.002,0.348-0.101,0.553-0.408,0.734c-8.091,4.787-16.175,9.584-24.254,14.387
		c-0.293,0.176-0.499,0.16-0.781-0.014c-8.051-4.965-16.109-9.918-24.156-14.891c-0.176-0.105-0.359-0.371-0.362-0.562
		c-0.025-2.121-0.017-4.244-0.013-6.365C5.692,13.011,5.713,12.937,5.731,12.814z"/>
	<path fill="#9EC7DB" d="M61.42,54.351c-9.6-5.947-19.063-11.812-28.594-17.721c0.239-0.154,0.427-0.281,0.618-0.398
		c8.274-5.152,16.558-10.305,24.824-15.471c0.527-0.328,1.003-0.342,1.521-0.107c0.913,0.406,1.473,1.096,1.59,2.104
		c0.03,0.248,0.037,0.5,0.037,0.75c0.001,10.033,0.001,20.066,0.001,30.1C61.42,53.814,61.42,54.021,61.42,54.351z"/>
</g>
</svg>
