<?xml version="1.0" encoding="utf-8"?>
<!-- Generator: Adobe Illustrator 16.0.0, SVG Export Plug-In . SVG Version: 6.00 Build 0)  -->
<!DOCTYPE svg PUBLIC "-//W3C//DTD SVG 1.1//EN" "http://www.w3.org/Graphics/SVG/1.1/DTD/svg11.dtd">
<svg version="1.1" id="Isolation_Mode" xmlns="http://www.w3.org/2000/svg" xmlns:xlink="http://www.w3.org/1999/xlink" x="0px"
	 y="0px" width="68.646px" height="59.955px" viewBox="0 0 68.646 59.955" enable-background="new 0 0 68.646 59.955"
	 xml:space="preserve">
<g>
	<path fill="#9EC7DB" d="M-0.001,42.678c0.094-0.532,0.147-1.075,0.284-1.595c1.123-4.28,3.847-6.968,8.126-8.049
		c0.739-0.188,1.526-0.245,2.292-0.249c4.023-0.021,8.045-0.029,12.066,0.01c1.744,0.018,3.36,0.573,4.895,1.467
		c-1.943,2.326-2.859,4.98-2.602,7.99c0.259,3.013,1.618,5.472,3.94,7.446c-2.246,0.726-4.069,2.007-5.452,3.892
		c-1.379,1.88-2.037,3.999-2.05,6.365c-7.173,0-14.336,0-21.5,0C-0.001,54.196-0.001,48.438-0.001,42.678z"/>
	<path fill="#9EC7DB" d="M68.646,59.944c-5.92,0-11.801,0-17.666,0c-0.312-5.375-3.047-8.829-8.129-10.444
		c3.302-3.164,4.597-6.995,3.167-11.439c-1.427-4.438-4.697-6.817-9.292-7.495c0.021-0.059,0.042-0.138,0.079-0.207
		c1.719-3.278,4.384-5.27,8.053-5.867c0.496-0.082,1.005-0.113,1.507-0.114c3.909-0.008,7.82-0.062,11.729,0.015
		c3.974,0.076,7.001,1.917,9.076,5.292c1.009,1.644,1.476,3.457,1.477,5.386c0.002,8.197,0,16.396,0,24.599
		C68.646,59.749,68.646,59.833,68.646,59.944z"/>
	<path fill="#9EC7DB" d="M51.597,0c6.111,0.021,11.004,4.948,10.983,11.062c-0.02,6.056-4.997,10.99-11.045,10.957
		c-6.098-0.032-11.005-4.994-10.973-11.088C40.595,4.877,45.54-0.023,51.597,0z"/>
	<path fill="#9EC7DB" d="M15.873,8.401c6.072-0.009,11.003,4.906,11.012,10.979c0.01,6.085-4.898,11.018-10.987,11.042
		C9.844,30.447,4.873,25.489,4.866,19.418C4.861,13.335,9.781,8.411,15.873,8.401z"/>
	<path fill="#9EC7DB" d="M43.705,41.324c0.002,4.38-3.535,7.927-7.911,7.93c-4.372,0.001-7.93-3.55-7.931-7.918
		c-0.002-4.374,3.544-7.922,7.919-7.924C40.168,33.41,43.703,36.942,43.705,41.324z"/>
	<path fill="#9EC7DB" d="M48.073,59.942c-7.911,0-15.791,0-23.692,0c-0.054-0.727,0.033-1.435,0.24-2.114
		c0.947-3.117,3.031-5.001,6.229-5.63c0.445-0.09,0.91-0.101,1.366-0.102c2.669-0.009,5.338-0.012,8.007-0.003
		c3.522,0.012,6.444,2.124,7.498,5.406C47.972,58.285,48.083,59.09,48.073,59.942z"/>
</g>
</svg>
